<svg width="640" height="570" viewBox="0 0 640 570" fill="none" xmlns="http://www.w3.org/2000/svg">
<g filter="url(#filter0_dddddd_11_279)">
<path fill-rule="evenodd" clip-rule="evenodd" d="M306.377 110.423V110.423L308.692 111.343L310.99 112.297L313.271 113.284L315.533 114.302L317.778 115.351L320.004 116.43L322.213 117.535L324.404 118.666L326.578 119.82L328.735 120.994L330.877 122.185L333.005 123.391L335.12 124.61L337.224 125.837L339.318 127.07L341.405 128.305L343.486 129.54L345.564 130.773L347.642 131.999L349.721 133.216L351.805 134.422L353.897 135.614L356 136.79L358.116 137.948L360.249 139.086L362.402 140.204L364.578 141.298L366.78 142.37L369.01 143.417L371.273 144.441L373.571 145.44L375.906 146.415L378.28 147.366L380.698 148.296L383.16 149.204L385.668 150.093L388.225 150.964L390.831 151.82L393.488 152.663L396.197 153.496L398.958 154.322L401.771 155.143L404.637 155.964L407.555 156.788L410.524 157.619L413.543 158.459L416.612 159.314L419.728 160.186L422.89 161.081L426.094 162.002L429.34 162.952L432.622 163.937L435.939 164.961L439.287 166.026L442.661 167.137L446.058 168.297L449.474 169.511L452.904 170.782L456.342 172.113L459.785 173.507L463.226 174.967L466.66 176.496L470.083 178.097L473.487 179.77L476.868 181.52L480.22 183.347L483.537 185.252L486.812 187.237L490.041 189.303L493.217 191.45L496.335 193.679L499.388 195.989L502.372 198.38L505.282 200.852L508.11 203.404L510.854 206.034L513.507 208.74L516.066 211.523L518.525 214.378L520.882 217.304L523.131 220.299L525.269 223.359L527.294 226.483L529.202 229.666L530.991 232.906L532.658 236.2L534.202 239.543L535.622 242.932L536.916 246.363L538.084 249.833L539.126 253.337L540.041 256.872L540.832 260.435L541.498 264.02L542.041 267.624L542.463 271.244L542.765 274.875L542.951 278.515L543.023 282.16L542.983 285.806L542.835 289.45L542.583 293.089L542.229 296.721L541.779 300.343L541.234 303.951L540.6 307.545L539.88 311.122L539.078 314.68L538.199 318.217L537.246 321.732L536.224 325.223L535.135 328.69L533.984 332.13L532.774 335.544L531.508 338.931L530.19 342.29L528.822 345.62L527.407 348.922L525.947 352.194L524.443 355.436L522.898 358.648L521.313 361.829L519.688 364.98L518.025 368.099L516.324 371.186L514.587 374.242L512.813 377.264L511.003 380.254L509.158 383.21L507.278 386.132L505.363 389.02L503.413 391.873L501.429 394.689L499.41 397.469L497.357 400.212L495.268 402.917L493.146 405.584L490.988 408.21L488.795 410.796L486.567 413.34L484.304 415.842L482.006 418.3L479.672 420.714L477.304 423.081L474.9 425.402L472.46 427.675L469.986 429.898L467.478 432.072L464.934 434.193L462.357 436.263L459.747 438.279L457.104 440.24L454.429 442.146L451.722 443.995L448.985 445.788L446.219 447.522L443.425 449.197L440.604 450.813L437.757 452.369L434.887 453.864L431.993 455.3L429.079 456.674L426.145 457.987L423.193 459.24L420.226 460.433L417.244 461.565L414.251 462.637L411.248 463.651L408.237 464.606L405.219 465.503L402.196 466.342L399.17 467.125L396.142 467.852L393.114 468.522L390.087 469.138L387.061 469.698L384.04 470.203L381.023 470.655L378.011 471.053L375.007 471.398L372.011 471.691L369.024 471.932L366.048 472.121L363.083 472.26L360.13 472.349L357.191 472.389L354.267 472.381L351.359 472.325L348.467 472.224L345.594 472.076L342.739 471.885L339.904 471.651L337.09 471.375L334.298 471.06L331.528 470.705L328.783 470.314L326.062 469.887L323.366 469.426L320.696 468.934L318.053 468.412L315.438 467.863L312.851 467.289L310.293 466.691L307.764 466.072L305.264 465.436L302.795 464.783L300.355 464.118L297.945 463.441L295.565 462.755L293.216 462.064L290.895 461.369L288.604 460.672L286.342 459.975L284.108 459.281L281.901 458.592L279.721 457.91L277.566 457.236L275.437 456.572L273.332 455.92L271.249 455.282L269.188 454.658L267.148 454.049L265.126 453.458L263.123 452.884L261.136 452.329L259.164 451.793L257.206 451.276L255.261 450.78L253.326 450.303L251.402 449.847L249.485 449.41L247.575 448.993L245.671 448.596L243.771 448.217L241.874 447.856L239.979 447.512L238.084 447.184L236.189 446.871L234.292 446.573L232.393 446.287L230.491 446.013L228.584 445.749L226.673 445.493L224.755 445.244L222.832 445.001L220.902 444.762L218.965 444.525L217.02 444.289L215.068 444.052L213.107 443.811L211.139 443.567L209.163 443.316L207.178 443.058L205.186 442.79L203.185 442.512L201.178 442.221L199.163 441.916L197.141 441.595L195.112 441.258L193.078 440.903L191.038 440.528L188.993 440.133L186.943 439.716L184.889 439.276L182.832 438.813L180.772 438.325L178.709 437.811L176.645 437.271L174.581 436.704L172.516 436.108L170.452 435.484L168.389 434.83L166.329 434.147L164.272 433.432L162.218 432.686L160.17 431.908L158.128 431.097L156.092 430.253L154.065 429.374L152.048 428.461L150.042 427.511L148.048 426.526L146.068 425.503L144.103 424.442L142.157 423.343L140.23 422.203L138.325 421.022L136.444 419.8L134.589 418.537L132.762 417.23L130.965 415.881L129.201 414.489L127.47 413.054L125.776 411.577L124.121 410.056L122.505 408.493L120.931 406.888L119.402 405.241L117.918 403.554L116.481 401.827L115.093 400.06L113.755 398.255L112.47 396.413L111.237 394.535L110.059 392.623L108.936 390.677L107.87 388.699L106.862 386.69L105.912 384.653L105.02 382.588L104.189 380.498L103.417 378.384L102.706 376.248L102.055 374.092L101.465 371.917L100.935 369.726L100.466 367.52L100.057 365.301L99.7068 363.071L99.416 360.833L99.1834 358.587L99.0082 356.337L98.8894 354.083L98.8259 351.827L98.8164 349.572L98.8596 347.318L98.954 345.069L99.0979 342.824L99.2898 340.587L99.5278 338.358L99.8099 336.139L100.134 333.931L100.498 331.735L100.899 329.554L101.334 327.387L101.801 325.236L102.295 323.102L102.814 320.986L103.353 318.888L103.909 316.81L104.478 314.75L105.055 312.71L105.637 310.689L106.219 308.687L106.797 306.703L107.368 304.738L107.926 302.79L108.468 300.857L108.99 298.94L109.488 297.036L109.959 295.144L110.398 293.262L110.803 291.387L111.17 289.519L111.497 287.655L111.781 285.791L112.019 283.927L112.21 282.059L112.352 280.184L112.443 278.3L112.483 276.404L112.471 274.494L112.406 272.566L112.288 270.618L112.118 268.647L111.897 266.65L111.626 264.625L111.305 262.57L110.938 260.481L110.526 258.358L110.072 256.197L109.579 253.997L109.049 251.757L108.487 249.475L107.896 247.149L107.28 244.779L106.644 242.365L105.992 239.905L105.328 237.4L104.658 234.849L103.986 232.254L103.318 229.614L102.658 226.932L102.013 224.207L101.387 221.442L100.785 218.639L100.214 215.8L99.678 212.927L99.1823 210.023L98.7321 207.09L98.3324 204.133L97.9879 201.154L97.7032 198.157L97.4829 195.146L97.331 192.125L97.2515 189.097L97.2481 186.068L97.3243 183.041L97.483 180.021L97.7273 177.012L98.0594 174.019L98.4816 171.047L98.9957 168.099L99.6031 165.181L100.305 162.297L101.102 159.45L101.995 156.646L102.983 153.888L104.067 151.181L105.245 148.527L106.517 145.93L107.882 143.395L109.338 140.923L110.882 138.517L112.513 136.181L114.229 133.916L116.027 131.724L117.904 129.607L119.858 127.568L121.884 125.606L123.981 123.724L126.144 121.921L128.37 120.198L130.656 118.555L132.997 116.992L135.39 115.509L137.832 114.104L140.318 112.777L142.845 111.526L145.408 110.349L148.005 109.245L150.631 108.212L153.284 107.247L155.959 106.348L158.653 105.513L161.364 104.738L164.088 104.021L166.822 103.358L169.564 102.748L172.312 102.186L175.062 101.671L177.814 101.198L180.564 100.766L183.313 100.371L186.058 100.011L188.798 99.6838L191.532 99.3871L194.259 99.1191L196.979 98.878L199.692 98.6625L202.396 98.4715L205.093 98.3038L207.781 98.1584L210.46 98.0345L213.131 97.9313L215.794 97.8481L218.448 97.7844L221.094 97.7398L223.732 97.7141L226.361 97.7069L228.983 97.7184L231.598 97.7486L234.204 97.7976L236.804 97.8658L239.397 97.9536L241.983 98.0614L244.562 98.1898L247.134 98.3395L249.7 98.5112L252.259 98.7056L254.812 98.9237L257.358 99.1663L259.898 99.4343L262.43 99.7287L264.956 100.05L267.474 100.4L269.984 100.779L272.487 101.188L274.981 101.628L277.465 102.1L279.941 102.604L282.406 103.141L284.861 103.712L287.305 104.317L289.737 104.957L292.156 105.632L294.563 106.343L296.955 107.088L299.334 107.869L301.697 108.686L304.045 109.537L306.377 110.423" fill="#FFBC8C"/>
</g>
<defs>
<filter id="filter0_dddddd_11_279" x="0.48011" y="0.939034" width="639.311" height="568.218" filterUnits="userSpaceOnUse" color-interpolation-filters="sRGB">
<feFlood flood-opacity="0" result="BackgroundImageFix"/>
<feColorMatrix in="SourceAlpha" type="matrix" values="0 0 0 0 0 0 0 0 0 0 0 0 0 0 0 0 0 0 127 0" result="hardAlpha"/>
<feOffset/>
<feGaussianBlur stdDeviation="1.152"/>
<feColorMatrix type="matrix" values="0 0 0 0 1 0 0 0 0 0.737255 0 0 0 0 0.54902 0 0 0 1 0"/>
<feBlend mode="normal" in2="BackgroundImageFix" result="effect1_dropShadow_11_279"/>
<feColorMatrix in="SourceAlpha" type="matrix" values="0 0 0 0 0 0 0 0 0 0 0 0 0 0 0 0 0 0 127 0" result="hardAlpha"/>
<feOffset/>
<feGaussianBlur stdDeviation="2.304"/>
<feColorMatrix type="matrix" values="0 0 0 0 1 0 0 0 0 0.737255 0 0 0 0 0.54902 0 0 0 1 0"/>
<feBlend mode="normal" in2="effect1_dropShadow_11_279" result="effect2_dropShadow_11_279"/>
<feColorMatrix in="SourceAlpha" type="matrix" values="0 0 0 0 0 0 0 0 0 0 0 0 0 0 0 0 0 0 127 0" result="hardAlpha"/>
<feOffset/>
<feGaussianBlur stdDeviation="8.064"/>
<feColorMatrix type="matrix" values="0 0 0 0 1 0 0 0 0 0.737255 0 0 0 0 0.54902 0 0 0 1 0"/>
<feBlend mode="normal" in2="effect2_dropShadow_11_279" result="effect3_dropShadow_11_279"/>
<feColorMatrix in="SourceAlpha" type="matrix" values="0 0 0 0 0 0 0 0 0 0 0 0 0 0 0 0 0 0 127 0" result="hardAlpha"/>
<feOffset/>
<feGaussianBlur stdDeviation="16.128"/>
<feColorMatrix type="matrix" values="0 0 0 0 1 0 0 0 0 0.737255 0 0 0 0 0.54902 0 0 0 1 0"/>
<feBlend mode="normal" in2="effect3_dropShadow_11_279" result="effect4_dropShadow_11_279"/>
<feColorMatrix in="SourceAlpha" type="matrix" values="0 0 0 0 0 0 0 0 0 0 0 0 0 0 0 0 0 0 127 0" result="hardAlpha"/>
<feOffset/>
<feGaussianBlur stdDeviation="27.648"/>
<feColorMatrix type="matrix" values="0 0 0 0 1 0 0 0 0 0.737255 0 0 0 0 0.54902 0 0 0 1 0"/>
<feBlend mode="normal" in2="effect4_dropShadow_11_279" result="effect5_dropShadow_11_279"/>
<feColorMatrix in="SourceAlpha" type="matrix" values="0 0 0 0 0 0 0 0 0 0 0 0 0 0 0 0 0 0 127 0" result="hardAlpha"/>
<feOffset/>
<feGaussianBlur stdDeviation="48.384"/>
<feColorMatrix type="matrix" values="0 0 0 0 1 0 0 0 0 0.737255 0 0 0 0 0.54902 0 0 0 1 0"/>
<feBlend mode="normal" in2="effect5_dropShadow_11_279" result="effect6_dropShadow_11_279"/>
<feBlend mode="normal" in="SourceGraphic" in2="effect6_dropShadow_11_279" result="shape"/>
</filter>
</defs>
</svg>
