<svg width="668" height="723" viewBox="0 0 668 723" fill="none" xmlns="http://www.w3.org/2000/svg">
<g filter="url(#filter0_dddddd_7_89)">
<path fill-rule="evenodd" clip-rule="evenodd" d="M489.144 238.181V238.181L490.2 240.825L491.215 243.481L492.189 246.149L493.123 248.827L494.017 251.513L494.872 254.208L495.691 256.91L496.475 259.616L497.226 262.326L497.948 265.039L498.643 267.753L499.315 270.467L499.967 273.179L500.602 275.889L501.226 278.595L501.841 281.297L502.452 283.995L503.063 286.687L503.678 289.375L504.303 292.057L504.941 294.734L505.596 297.407L506.273 300.075L506.976 302.741L507.708 305.406L508.473 308.07L509.275 310.736L510.117 313.405L511.001 316.079L511.931 318.76L512.908 321.451L513.934 324.155L515.011 326.873L516.14 329.609L517.322 332.366L518.556 335.145L519.842 337.951L521.181 340.786L522.57 343.654L524.008 346.555L525.493 349.495L527.022 352.475L528.594 355.498L530.204 358.566L531.849 361.682L533.525 364.848L535.228 368.066L536.953 371.337L538.696 374.663L540.451 378.046L542.213 381.485L543.976 384.983L545.734 388.539L547.481 392.153L549.212 395.826L550.919 399.557L552.597 403.345L554.238 407.189L555.837 411.088L557.386 415.04L558.879 419.043L560.31 423.094L561.673 427.191L562.96 431.331L564.166 435.511L565.285 439.728L566.311 443.977L567.239 448.255L568.063 452.558L568.778 456.88L569.379 461.219L569.863 465.568L570.224 469.923L570.46 474.28L570.567 478.632L570.541 482.976L570.381 487.305L570.084 491.614L569.648 495.899L569.073 500.154L568.356 504.374L567.497 508.553L566.497 512.688L565.356 516.773L564.074 520.804L562.652 524.776L561.092 528.685L559.397 532.526L557.567 536.297L555.606 539.993L553.518 543.612L551.304 547.151L548.97 550.606L546.519 553.977L543.956 557.26L541.284 560.455L538.509 563.561L535.636 566.576L532.668 569.5L529.612 572.333L526.473 575.075L523.255 577.726L519.964 580.287L516.605 582.76L513.183 585.144L509.703 587.443L506.169 589.657L502.588 591.789L498.962 593.839L495.297 595.811L491.597 597.707L487.865 599.529L484.105 601.278L480.322 602.958L476.517 604.57L472.694 606.116L468.856 607.599L465.005 609.02L461.143 610.38L457.271 611.681L453.392 612.924L449.506 614.109L445.616 615.237L441.72 616.309L437.822 617.325L433.922 618.285L430.02 619.189L426.117 620.038L422.214 620.831L418.312 621.568L414.411 622.248L410.512 622.873L406.615 623.441L402.722 623.951L398.832 624.403L394.947 624.797L391.066 625.131L387.191 625.406L383.322 625.619L379.46 625.771L375.606 625.859L371.76 625.885L367.923 625.846L364.097 625.741L360.282 625.571L356.48 625.334L352.69 625.029L348.915 624.656L345.156 624.214L341.413 623.702L337.689 623.121L333.984 622.47L330.3 621.748L326.639 620.957L323.001 620.095L319.388 619.163L315.802 618.161L312.244 617.091L308.715 615.952L305.218 614.746L301.753 613.473L298.322 612.136L294.926 610.734L291.567 609.27L288.245 607.745L284.963 606.162L281.72 604.521L278.519 602.826L275.359 601.078L272.243 599.28L269.171 597.432L266.143 595.537L263.16 593.596L260.223 591.611L257.334 589.582L254.491 587.513L251.696 585.403L248.95 583.255L246.253 581.07L243.605 578.849L241.008 576.593L238.46 574.304L235.963 571.984L233.518 569.633L231.123 567.253L228.78 564.847L226.488 562.414L224.249 559.958L222.06 557.479L219.924 554.979L217.838 552.46L215.804 549.924L213.821 547.373L211.889 544.808L210.006 542.232L208.173 539.646L206.388 537.053L204.651 534.455L202.961 531.853L201.317 529.25L199.717 526.649L198.16 524.051L196.645 521.459L195.17 518.874L193.734 516.3L192.334 513.738L190.969 511.191L189.636 508.66L188.334 506.147L187.061 503.654L185.814 501.182L184.592 498.733L183.391 496.309L182.21 493.91L181.048 491.538L179.9 489.193L178.766 486.876L177.643 484.587L176.529 482.328L175.422 480.098L174.32 477.898L173.221 475.727L172.123 473.585L171.024 471.472L169.923 469.387L168.818 467.33L167.708 465.3L166.59 463.295L165.465 461.316L164.331 459.36L163.187 457.427L162.031 455.515L160.865 453.622L159.686 451.748L158.494 449.89L157.29 448.048L156.073 446.218L154.842 444.4L153.599 442.592L152.344 440.792L151.076 438.998L149.796 437.208L148.506 435.422L147.205 433.636L145.895 431.849L144.576 430.059L143.25 428.266L141.918 426.467L140.58 424.66L139.239 422.845L137.894 421.02L136.549 419.183L135.203 417.334L133.859 415.47L132.518 413.592L131.182 411.698L129.851 409.786L128.527 407.857L127.213 405.909L125.909 403.942L124.616 401.955L123.336 399.947L122.071 397.919L120.821 395.869L119.589 393.798L118.374 391.706L117.18 389.591L116.006 387.454L114.854 385.295L113.725 383.114L112.62 380.911L111.541 378.686L110.489 376.439L109.465 374.171L108.47 371.881L107.505 369.57L106.573 367.238L105.674 364.886L104.809 362.513L103.981 360.122L103.192 357.711L102.442 355.282L101.734 352.836L101.071 350.372L100.453 347.893L99.8843 345.398L99.3663 342.89L98.9015 340.369L98.4919 337.837L98.1397 335.294L97.8465 332.743L97.6144 330.185L97.4449 327.622L97.3395 325.055L97.2996 322.486L97.3265 319.917L97.4213 317.35L97.585 314.786L97.8185 312.229L98.1223 309.679L98.497 307.139L98.9431 304.611L99.4607 302.096L100.05 299.597L100.711 297.117L101.443 294.656L102.246 292.217L103.12 289.801L104.063 287.412L105.075 285.049L106.156 282.717L107.303 280.415L108.516 278.146L109.794 275.911L111.134 273.712L112.536 271.55L113.997 269.427L115.516 267.343L117.091 265.301L118.72 263.3L120.4 261.342L122.129 259.427L123.906 257.557L125.728 255.732L127.591 253.951L129.495 252.216L131.435 250.526L133.41 248.881L135.417 247.282L137.454 245.727L139.517 244.217L141.603 242.75L143.711 241.327L145.836 239.945L147.976 238.603L150.127 237.299L152.286 236.032L154.449 234.799L156.613 233.598L158.775 232.425L160.931 231.278L163.077 230.153L165.211 229.047L167.33 227.957L169.43 226.878L171.509 225.806L173.564 224.738L175.593 223.669L177.594 222.595L179.566 221.512L181.505 220.415L183.412 219.3L185.285 218.162L187.124 216.999L188.928 215.804L190.696 214.575L192.431 213.307L194.131 211.997L195.797 210.642L197.432 209.237L199.036 207.78L200.612 206.268L202.16 204.699L203.684 203.07L205.186 201.38L206.668 199.627L208.135 197.81L209.588 195.929L211.033 193.982L212.471 191.971L213.906 189.896L215.343 187.758L216.786 185.558L218.238 183.297L219.703 180.979L221.185 178.606L222.688 176.18L224.216 173.705L225.773 171.185L227.362 168.625L228.987 166.027L230.652 163.398L232.359 160.742L234.112 158.066L235.914 155.373L237.767 152.671L239.673 149.965L241.635 147.262L243.655 144.568L245.734 141.89L247.874 139.234L250.074 136.607L252.337 134.015L254.662 131.465L257.049 128.965L259.498 126.519L262.009 124.135L264.58 121.819L267.211 119.577L269.899 117.415L272.643 115.338L275.441 113.352L278.29 111.461L281.189 109.672L284.134 107.987L287.122 106.411L290.15 104.947L293.215 103.6L296.313 102.37L299.441 101.262L302.595 100.277L305.771 99.416L308.966 98.6806L312.176 98.0713L315.397 97.5883L318.625 97.2314L321.856 97.0004L325.087 96.8942L328.315 96.9116L331.535 97.0511L334.745 97.3108L337.941 97.6883L341.12 98.181L344.28 98.786L347.417 99.5001L350.528 100.32L353.613 101.241L356.668 102.261L359.692 103.373L362.683 104.576L365.64 105.862L368.562 107.229L371.447 108.672L374.295 110.184L377.106 111.763L379.88 113.403L382.616 115.099L385.315 116.847L387.976 118.642L390.602 120.48L393.191 122.356L395.746 124.268L398.267 126.21L400.755 128.18L403.211 130.174L405.636 132.19L408.031 134.226L410.397 136.278L412.735 138.345L415.046 140.426L417.331 142.52L419.589 144.625L421.823 146.741L424.031 148.867L426.217 151.001L428.378 153.145L430.517 155.297L432.634 157.457L434.729 159.625L436.801 161.801L438.853 163.986L440.883 166.178L442.891 168.38L444.878 170.59L446.843 172.81L448.786 175.04L450.706 177.281L452.604 179.533L454.479 181.796L456.329 184.072L458.154 186.362L459.955 188.665L461.728 190.982L463.475 193.315L465.193 195.663L466.882 198.027L468.541 200.408L470.168 202.805L471.763 205.22L473.325 207.652L474.853 210.102L476.345 212.57L477.801 215.056L479.219 217.559L480.6 220.079L481.942 222.617L483.244 225.172L484.506 227.743L485.727 230.331L486.907 232.933L488.047 235.55L489.144 238.181" fill="#FFBC8C"/>
</g>
<defs>
<filter id="filter0_dddddd_7_89" x="0.531578" y="0.126167" width="666.803" height="722.527" filterUnits="userSpaceOnUse" color-interpolation-filters="sRGB">
<feFlood flood-opacity="0" result="BackgroundImageFix"/>
<feColorMatrix in="SourceAlpha" type="matrix" values="0 0 0 0 0 0 0 0 0 0 0 0 0 0 0 0 0 0 127 0" result="hardAlpha"/>
<feOffset/>
<feGaussianBlur stdDeviation="1.152"/>
<feColorMatrix type="matrix" values="0 0 0 0 1 0 0 0 0 0.737255 0 0 0 0 0.54902 0 0 0 1 0"/>
<feBlend mode="normal" in2="BackgroundImageFix" result="effect1_dropShadow_7_89"/>
<feColorMatrix in="SourceAlpha" type="matrix" values="0 0 0 0 0 0 0 0 0 0 0 0 0 0 0 0 0 0 127 0" result="hardAlpha"/>
<feOffset/>
<feGaussianBlur stdDeviation="2.304"/>
<feColorMatrix type="matrix" values="0 0 0 0 1 0 0 0 0 0.737255 0 0 0 0 0.54902 0 0 0 1 0"/>
<feBlend mode="normal" in2="effect1_dropShadow_7_89" result="effect2_dropShadow_7_89"/>
<feColorMatrix in="SourceAlpha" type="matrix" values="0 0 0 0 0 0 0 0 0 0 0 0 0 0 0 0 0 0 127 0" result="hardAlpha"/>
<feOffset/>
<feGaussianBlur stdDeviation="8.064"/>
<feColorMatrix type="matrix" values="0 0 0 0 1 0 0 0 0 0.737255 0 0 0 0 0.54902 0 0 0 1 0"/>
<feBlend mode="normal" in2="effect2_dropShadow_7_89" result="effect3_dropShadow_7_89"/>
<feColorMatrix in="SourceAlpha" type="matrix" values="0 0 0 0 0 0 0 0 0 0 0 0 0 0 0 0 0 0 127 0" result="hardAlpha"/>
<feOffset/>
<feGaussianBlur stdDeviation="16.128"/>
<feColorMatrix type="matrix" values="0 0 0 0 1 0 0 0 0 0.737255 0 0 0 0 0.54902 0 0 0 1 0"/>
<feBlend mode="normal" in2="effect3_dropShadow_7_89" result="effect4_dropShadow_7_89"/>
<feColorMatrix in="SourceAlpha" type="matrix" values="0 0 0 0 0 0 0 0 0 0 0 0 0 0 0 0 0 0 127 0" result="hardAlpha"/>
<feOffset/>
<feGaussianBlur stdDeviation="27.648"/>
<feColorMatrix type="matrix" values="0 0 0 0 1 0 0 0 0 0.737255 0 0 0 0 0.54902 0 0 0 1 0"/>
<feBlend mode="normal" in2="effect4_dropShadow_7_89" result="effect5_dropShadow_7_89"/>
<feColorMatrix in="SourceAlpha" type="matrix" values="0 0 0 0 0 0 0 0 0 0 0 0 0 0 0 0 0 0 127 0" result="hardAlpha"/>
<feOffset/>
<feGaussianBlur stdDeviation="48.384"/>
<feColorMatrix type="matrix" values="0 0 0 0 1 0 0 0 0 0.737255 0 0 0 0 0.54902 0 0 0 1 0"/>
<feBlend mode="normal" in2="effect5_dropShadow_7_89" result="effect6_dropShadow_7_89"/>
<feBlend mode="normal" in="SourceGraphic" in2="effect6_dropShadow_7_89" result="shape"/>
</filter>
</defs>
</svg>
