<svg width="640" height="569" viewBox="0 0 640 569" fill="none" xmlns="http://www.w3.org/2000/svg">
<g filter="url(#filter0_dddddd_11_355)">
<path fill-rule="evenodd" clip-rule="evenodd" d="M306.377 109.946V109.946L308.692 110.866L310.99 111.82L313.271 112.806L315.533 113.825L317.778 114.874L320.004 115.952L322.213 117.058L324.404 118.189L326.578 119.342L328.735 120.516L330.877 121.708L333.005 122.914L335.12 124.132L337.224 125.359L339.318 126.592L341.405 127.828L343.486 129.063L345.564 130.295L347.642 131.521L349.721 132.739L351.805 133.944L353.897 135.137L356 136.313L358.116 137.471L360.249 138.609L362.402 139.726L364.578 140.821L366.78 141.893L369.01 142.94L371.273 143.963L373.571 144.962L375.906 145.937L378.28 146.889L380.698 147.818L383.16 148.727L385.668 149.615L388.225 150.487L390.831 151.343L393.488 152.186L396.197 153.019L398.958 153.844L401.771 154.666L404.637 155.487L407.555 156.311L410.524 157.141L413.543 157.982L416.612 158.836L419.728 159.709L422.89 160.604L426.094 161.524L429.34 162.475L432.622 163.46L435.939 164.483L439.287 165.548L442.661 166.659L446.058 167.82L449.474 169.034L452.904 170.305L456.342 171.636L459.785 173.03L463.226 174.49L466.66 176.019L470.083 177.619L473.487 179.293L476.868 181.043L480.22 182.869L483.537 184.775L486.812 186.76L490.041 188.826L493.217 190.973L496.335 193.202L499.388 195.512L502.372 197.903L505.282 200.375L508.11 202.926L510.854 205.556L513.507 208.263L516.066 211.045L518.525 213.901L520.882 216.827L523.131 219.822L525.269 222.882L527.294 226.006L529.202 229.189L530.991 232.429L532.658 235.722L534.202 239.065L535.622 242.454L536.916 245.886L538.084 249.355L539.126 252.86L540.041 256.395L540.832 259.957L541.498 263.542L542.041 267.147L542.463 270.767L542.765 274.398L542.951 278.038L543.023 281.682L542.983 285.328L542.835 288.972L542.583 292.612L542.229 296.244L541.779 299.865L541.234 303.474L540.6 307.068L539.88 310.645L539.078 314.203L538.199 317.74L537.246 321.254L536.224 324.746L535.135 328.212L533.984 331.653L532.774 335.067L531.508 338.454L530.19 341.813L528.822 345.143L527.407 348.444L525.947 351.716L524.443 354.958L522.898 358.17L521.313 361.352L519.688 364.502L518.025 367.622L516.324 370.709L514.587 373.764L512.813 376.787L511.003 379.777L509.158 382.733L507.278 385.655L505.363 388.543L503.413 391.395L501.429 394.212L499.41 396.992L497.357 399.735L495.268 402.44L493.146 405.106L490.988 407.733L488.795 410.319L486.567 412.863L484.304 415.365L482.006 417.823L479.672 420.236L477.304 422.604L474.9 424.925L472.46 427.197L469.986 429.421L467.478 431.594L464.934 433.716L462.357 435.786L459.747 437.802L457.104 439.763L454.429 441.669L451.722 443.518L448.985 445.31L446.219 447.044L443.425 448.72L440.604 450.335L437.757 451.891L434.887 453.387L431.993 454.822L429.079 456.197L426.145 457.51L423.193 458.763L420.226 459.955L417.244 461.087L414.251 462.16L411.248 463.173L408.237 464.128L405.219 465.025L402.196 465.865L399.17 466.648L396.142 467.374L393.114 468.045L390.087 468.66L387.061 469.22L384.04 469.726L381.023 470.178L378.011 470.576L375.007 470.921L372.011 471.214L369.024 471.454L366.048 471.644L363.083 471.783L360.13 471.872L357.191 471.912L354.267 471.904L351.359 471.848L348.467 471.746L345.594 471.599L342.739 471.408L339.904 471.174L337.09 470.898L334.298 470.582L331.528 470.228L328.783 469.836L326.062 469.409L323.366 468.949L320.696 468.457L318.053 467.935L315.438 467.386L312.851 466.811L310.293 466.213L307.764 465.595L305.264 464.958L302.795 464.306L300.355 463.64L297.945 462.963L295.565 462.278L293.216 461.587L290.895 460.891L288.604 460.194L286.342 459.498L284.108 458.804L281.901 458.115L279.721 457.433L277.566 456.759L275.437 456.095L273.332 455.443L271.249 454.804L269.188 454.18L267.148 453.572L265.126 452.98L263.123 452.407L261.136 451.851L259.164 451.315L257.206 450.799L255.261 450.302L253.326 449.826L251.402 449.369L249.485 448.933L247.575 448.516L245.671 448.118L243.771 447.739L241.874 447.378L239.979 447.034L238.084 446.707L236.189 446.394L234.292 446.096L232.393 445.81L230.491 445.536L228.584 445.271L226.673 445.016L224.755 444.767L222.832 444.524L220.902 444.285L218.965 444.048L217.02 443.812L215.068 443.574L213.107 443.334L211.139 443.09L209.163 442.839L207.178 442.581L205.186 442.313L203.185 442.034L201.178 441.743L199.163 441.438L197.141 441.118L195.112 440.781L193.078 440.425L191.038 440.051L188.993 439.656L186.943 439.239L184.889 438.799L182.832 438.336L180.772 437.848L178.709 437.334L176.645 436.794L174.581 436.226L172.516 435.631L170.452 435.007L168.389 434.353L166.329 433.669L164.272 432.955L162.218 432.209L160.17 431.431L158.128 430.62L156.092 429.775L154.065 428.897L152.048 427.983L150.042 427.034L148.048 426.049L146.068 425.026L144.103 423.965L142.157 422.865L140.23 421.726L138.325 420.545L136.444 419.323L134.589 418.059L132.762 416.753L130.965 415.404L129.201 414.012L127.47 412.577L125.776 411.099L124.121 409.579L122.505 408.016L120.931 406.411L119.402 404.764L117.918 403.077L116.481 401.349L115.093 399.583L113.755 397.778L112.47 395.936L111.237 394.058L110.059 392.145L108.936 390.199L107.87 388.221L106.862 386.213L105.912 384.176L105.02 382.111L104.189 380.021L103.417 377.907L102.706 375.771L102.055 373.614L101.465 371.44L100.935 369.248L100.466 367.042L100.057 364.824L99.7068 362.594L99.416 360.356L99.1834 358.11L99.0082 355.859L98.8894 353.605L98.8259 351.35L98.8164 349.094L98.8596 346.841L98.954 344.591L99.0979 342.347L99.2898 340.11L99.5278 337.881L99.8099 335.661L100.134 333.453L100.498 331.258L100.899 329.076L101.334 326.91L101.801 324.759L102.295 322.625L102.814 320.509L103.353 318.411L103.909 316.332L104.478 314.273L105.055 312.232L105.637 310.211L106.219 308.209L106.797 306.226L107.368 304.261L107.926 302.312L108.468 300.38L108.99 298.463L109.488 296.559L109.959 294.666L110.398 292.784L110.803 290.91L111.17 289.042L111.497 287.177L111.781 285.314L112.019 283.45L112.21 281.581L112.352 279.707L112.443 277.823L112.483 275.927L112.471 274.017L112.406 272.089L112.288 270.141L112.118 268.17L111.897 266.173L111.626 264.148L111.305 262.093L110.938 260.004L110.526 257.881L110.072 255.72L109.579 253.52L109.049 251.28L108.487 248.997L107.896 246.672L107.28 244.302L106.644 241.887L105.992 239.428L105.328 236.922L104.658 234.372L103.986 231.776L103.318 229.137L102.658 226.454L102.013 223.73L101.387 220.965L100.785 218.162L100.214 215.323L99.678 212.45L99.1823 209.546L98.7321 206.613L98.3324 203.656L97.9879 200.677L97.7032 197.68L97.4829 194.669L97.331 191.648L97.2515 188.62L97.2481 185.591L97.3243 182.564L97.483 179.544L97.7273 176.535L98.0594 173.542L98.4816 170.57L98.9957 167.622L99.6031 164.704L100.305 161.819L101.102 158.973L101.995 156.169L102.983 153.411L104.067 150.703L105.245 148.049L106.517 145.453L107.882 142.917L109.338 140.445L110.882 138.04L112.513 135.703L114.229 133.438L116.027 131.247L117.904 129.13L119.858 127.091L121.884 125.129L123.981 123.246L126.144 121.443L128.37 119.72L130.656 118.078L132.997 116.515L135.39 115.032L137.832 113.627L140.318 112.3L142.845 111.048L145.408 109.872L148.005 108.768L150.631 107.735L153.284 106.77L155.959 105.871L158.653 105.036L161.364 104.261L164.088 103.543L166.822 102.881L169.564 102.271L172.312 101.709L175.062 101.193L177.814 100.721L180.564 100.288L183.313 99.8935L186.058 99.5337L188.798 99.2065L191.532 98.9099L194.259 98.6418L196.979 98.4007L199.692 98.1852L202.396 97.9942L205.093 97.8265L207.781 97.6811L210.46 97.5572L213.131 97.454L215.794 97.3708L218.448 97.3071L221.094 97.2625L223.732 97.2368L226.361 97.2296L228.983 97.2411L231.598 97.2713L234.204 97.3203L236.804 97.3886L239.397 97.4763L241.983 97.5841L244.562 97.7125L247.134 97.8622L249.7 98.0339L252.259 98.2283L254.812 98.4464L257.358 98.689L259.898 98.957L262.43 99.2514L264.956 99.573L267.474 99.9229L269.984 100.302L272.487 100.711L274.981 101.151L277.465 101.622L279.941 102.126L282.406 102.664L284.861 103.235L287.305 103.84L289.737 104.48L292.156 105.155L294.563 105.865L296.955 106.611L299.334 107.392L301.697 108.208L304.045 109.06L306.377 109.946" fill="#FFBC8C"/>
</g>
<defs>
<filter id="filter0_dddddd_11_355" x="0.48011" y="0.461494" width="639.311" height="568.219" filterUnits="userSpaceOnUse" color-interpolation-filters="sRGB">
<feFlood flood-opacity="0" result="BackgroundImageFix"/>
<feColorMatrix in="SourceAlpha" type="matrix" values="0 0 0 0 0 0 0 0 0 0 0 0 0 0 0 0 0 0 127 0" result="hardAlpha"/>
<feOffset/>
<feGaussianBlur stdDeviation="1.152"/>
<feColorMatrix type="matrix" values="0 0 0 0 1 0 0 0 0 0.737255 0 0 0 0 0.54902 0 0 0 1 0"/>
<feBlend mode="normal" in2="BackgroundImageFix" result="effect1_dropShadow_11_355"/>
<feColorMatrix in="SourceAlpha" type="matrix" values="0 0 0 0 0 0 0 0 0 0 0 0 0 0 0 0 0 0 127 0" result="hardAlpha"/>
<feOffset/>
<feGaussianBlur stdDeviation="2.304"/>
<feColorMatrix type="matrix" values="0 0 0 0 1 0 0 0 0 0.737255 0 0 0 0 0.54902 0 0 0 1 0"/>
<feBlend mode="normal" in2="effect1_dropShadow_11_355" result="effect2_dropShadow_11_355"/>
<feColorMatrix in="SourceAlpha" type="matrix" values="0 0 0 0 0 0 0 0 0 0 0 0 0 0 0 0 0 0 127 0" result="hardAlpha"/>
<feOffset/>
<feGaussianBlur stdDeviation="8.064"/>
<feColorMatrix type="matrix" values="0 0 0 0 1 0 0 0 0 0.737255 0 0 0 0 0.54902 0 0 0 1 0"/>
<feBlend mode="normal" in2="effect2_dropShadow_11_355" result="effect3_dropShadow_11_355"/>
<feColorMatrix in="SourceAlpha" type="matrix" values="0 0 0 0 0 0 0 0 0 0 0 0 0 0 0 0 0 0 127 0" result="hardAlpha"/>
<feOffset/>
<feGaussianBlur stdDeviation="16.128"/>
<feColorMatrix type="matrix" values="0 0 0 0 1 0 0 0 0 0.737255 0 0 0 0 0.54902 0 0 0 1 0"/>
<feBlend mode="normal" in2="effect3_dropShadow_11_355" result="effect4_dropShadow_11_355"/>
<feColorMatrix in="SourceAlpha" type="matrix" values="0 0 0 0 0 0 0 0 0 0 0 0 0 0 0 0 0 0 127 0" result="hardAlpha"/>
<feOffset/>
<feGaussianBlur stdDeviation="27.648"/>
<feColorMatrix type="matrix" values="0 0 0 0 1 0 0 0 0 0.737255 0 0 0 0 0.54902 0 0 0 1 0"/>
<feBlend mode="normal" in2="effect4_dropShadow_11_355" result="effect5_dropShadow_11_355"/>
<feColorMatrix in="SourceAlpha" type="matrix" values="0 0 0 0 0 0 0 0 0 0 0 0 0 0 0 0 0 0 127 0" result="hardAlpha"/>
<feOffset/>
<feGaussianBlur stdDeviation="48.384"/>
<feColorMatrix type="matrix" values="0 0 0 0 1 0 0 0 0 0.737255 0 0 0 0 0.54902 0 0 0 1 0"/>
<feBlend mode="normal" in2="effect5_dropShadow_11_355" result="effect6_dropShadow_11_355"/>
<feBlend mode="normal" in="SourceGraphic" in2="effect6_dropShadow_11_355" result="shape"/>
</filter>
</defs>
</svg>
