<svg width="575" height="525" viewBox="0 0 575 525" fill="none" xmlns="http://www.w3.org/2000/svg">
<g filter="url(#filter0_dddddd_7_86)">
<path fill-rule="evenodd" clip-rule="evenodd" d="M446.008 402.605V402.605L442.919 404.124L439.774 405.546L436.58 406.87L433.341 408.098L430.062 409.23L426.75 410.267L423.409 411.212L420.045 412.065L416.661 412.829L413.264 413.505L409.859 414.097L406.448 414.606L403.039 415.036L399.633 415.389L396.237 415.668L392.853 415.877L389.486 416.018L386.138 416.095L382.813 416.111L379.513 416.068L376.241 415.971L373 415.822L369.792 415.626L366.621 415.386L363.488 415.108L360.396 414.796L357.348 414.456L354.346 414.094L351.391 413.713L348.485 413.319L345.627 412.915L342.818 412.507L340.059 412.096L337.348 411.686L334.686 411.28L332.071 410.882L329.502 410.493L326.979 410.117L324.499 409.755L322.063 409.411L319.668 409.085L317.313 408.782L314.996 408.502L312.716 408.249L310.471 408.023L308.259 407.826L306.077 407.661L303.925 407.529L301.799 407.431L299.698 407.37L297.619 407.345L295.561 407.359L293.52 407.413L291.495 407.507L289.483 407.641L287.481 407.817L285.487 408.036L283.499 408.296L281.514 408.599L279.529 408.945L277.542 409.333L275.551 409.763L273.552 410.235L271.544 410.748L269.524 411.302L267.489 411.895L265.437 412.528L263.367 413.199L261.274 413.908L259.158 414.653L257.015 415.432L254.844 416.246L252.642 417.091L250.408 417.968L248.139 418.874L245.834 419.807L243.49 420.766L241.105 421.749L238.679 422.754L236.209 423.778L233.694 424.818L231.132 425.873L228.523 426.938L225.865 428.011L223.158 429.087L220.401 430.162L217.594 431.232L214.739 432.292L211.834 433.335L208.882 434.357L205.883 435.35L202.84 436.307L199.757 437.22L196.637 438.08L193.484 438.876L190.306 439.598L187.107 440.235L183.895 440.777L180.678 441.211L177.466 441.528L174.266 441.716L171.09 441.766L167.948 441.667L164.851 441.411L161.809 440.99L158.834 440.398L155.937 439.629L153.128 438.679L150.418 437.546L147.817 436.228L145.334 434.725L142.979 433.038L140.761 431.17L138.686 429.123L136.762 426.903L134.995 424.516L133.389 421.969L131.949 419.269L130.678 416.426L129.577 413.45L128.648 410.35L127.889 407.139L127.299 403.828L126.875 400.43L126.612 396.957L126.505 393.423L126.548 389.841L126.733 386.224L127.05 382.585L127.491 378.937L128.043 375.294L128.694 371.668L129.433 368.07L130.246 364.513L131.118 361.007L132.034 357.563L132.98 354.188L133.94 350.893L134.898 347.683L135.839 344.566L136.746 341.547L137.606 338.629L138.401 335.817L139.119 333.111L139.746 330.513L140.267 328.023L140.671 325.638L140.948 323.357L141.087 321.176L141.079 319.09L140.918 317.093L140.597 315.18L140.113 313.343L139.463 311.575L138.645 309.867L137.661 308.21L136.513 306.596L135.205 305.016L133.741 303.458L132.13 301.916L130.379 300.378L128.498 298.837L126.497 297.283L124.388 295.709L122.183 294.106L119.894 292.469L117.538 290.789L115.129 289.062L112.684 287.283L110.222 285.445L107.762 283.547L105.322 281.586L102.922 279.559L100.581 277.467L98.3168 275.31L96.1476 273.089L94.0895 270.808L92.1574 268.468L90.3652 266.076L88.7261 263.635L87.2522 261.151L85.9545 258.631L84.8426 256.08L83.9247 253.507L83.2077 250.918L82.6973 248.321L82.3974 245.725L82.311 243.138L82.4393 240.567L82.7825 238.02L83.3392 235.506L84.1067 233.032L85.0809 230.605L86.2566 228.232L87.6271 225.919L89.1847 223.673L90.9204 221.499L92.8243 219.401L94.8853 217.383L97.0915 215.448L99.4301 213.598L101.888 211.836L104.45 210.16L107.103 208.571L109.831 207.067L112.62 205.647L115.453 204.307L118.316 203.043L121.194 201.849L124.07 200.722L126.932 199.653L129.764 198.637L132.554 197.665L135.288 196.73L137.956 195.821L140.544 194.932L143.045 194.051L145.448 193.17L147.746 192.279L149.933 191.369L152.003 190.429L153.952 189.452L155.777 188.428L157.476 187.348L159.051 186.205L160.5 184.992L161.827 183.702L163.035 182.328L164.129 180.867L165.113 179.314L165.995 177.666L166.782 175.921L167.482 174.077L168.104 172.135L168.657 170.095L169.151 167.959L169.595 165.73L170.001 163.411L170.379 161.007L170.738 158.522L171.089 155.963L171.442 153.337L171.808 150.649L172.195 147.91L172.613 145.127L173.071 142.309L173.578 139.468L174.142 136.612L174.77 133.753L175.468 130.902L176.244 128.068L177.102 125.263L178.045 122.498L179.078 119.781L180.203 117.123L181.421 114.534L182.735 112.022L184.145 109.597L185.649 107.268L187.248 105.041L188.939 102.924L190.721 100.923L192.589 99.044L194.542 97.2925L196.575 95.6726L198.684 94.188L200.863 92.8418L203.109 91.6361L205.416 90.5721L207.779 89.6506L210.19 88.871L212.646 88.2322L215.139 87.7321L217.664 87.3677L220.215 87.1352L222.786 87.0299L225.37 87.0462L227.963 87.1778L230.56 87.4175L233.154 87.7575L235.741 88.1894L238.318 88.7039L240.88 89.2914L243.423 89.9418L245.946 90.6446L248.445 91.3891L250.919 92.1643L253.367 92.959L255.787 93.7623L258.181 94.5631L260.549 95.3508L262.892 96.1148L265.211 96.8452L267.51 97.5323L269.79 98.1673L272.055 98.7418L274.309 99.2484L276.556 99.6804L278.8 100.032L281.045 100.299L283.297 100.476L285.56 100.563L287.839 100.556L290.139 100.455L292.465 100.262L294.822 99.9767L297.213 99.6033L299.643 99.1451L302.115 98.6069L304.634 97.9944L307.201 97.3143L309.819 96.5736L312.49 95.7805L315.216 94.9433L317.996 94.0708L320.831 93.1722L323.722 92.257L326.666 91.335L329.663 90.4163L332.71 89.5106L335.805 88.6276L338.944 87.777L342.125 86.968L345.344 86.2097L348.595 85.5108L351.875 84.8797L355.179 84.3246L358.5 83.8529L361.834 83.4719L365.174 83.1879L368.514 83.0074L371.848 82.936L375.169 82.9792L378.471 83.1421L381.745 83.4294L384.986 83.8456L388.184 84.3944L391.332 85.079L394.424 85.9019L397.451 86.8648L400.407 87.9687L403.284 89.2137L406.076 90.5991L408.778 92.1235L411.384 93.7847L413.888 95.5794L416.287 97.504L418.577 99.5539L420.754 101.724L422.818 104.009L424.765 106.401L426.595 108.895L428.309 111.484L429.907 114.159L431.391 116.913L432.763 119.737L434.025 122.625L435.183 125.567L436.239 128.555L437.199 131.582L438.069 134.638L438.855 137.718L439.563 140.812L440.201 143.914L440.776 147.018L441.295 150.116L441.768 153.203L442.2 156.274L442.603 159.323L442.982 162.347L443.347 165.341L443.706 168.303L444.066 171.231L444.435 174.121L444.821 176.973L445.231 179.787L445.671 182.562L446.147 185.298L446.665 187.997L447.229 190.661L447.843 193.29L448.512 195.888L449.237 198.457L450.02 201L450.863 203.522L451.766 206.026L452.728 208.515L453.746 210.994L454.819 213.467L455.943 215.939L457.113 218.414L458.323 220.895L459.566 223.388L460.836 225.895L462.124 228.42L463.425 230.966L464.731 233.535L466.037 236.129L467.337 238.75L468.627 241.399L469.902 244.077L471.16 246.784L472.396 249.522L473.609 252.289L474.798 255.086L475.962 257.914L477.1 260.772L478.213 263.661L479.3 266.579L480.359 269.528L481.39 272.507L482.391 275.517L483.362 278.556L484.299 281.626L485.2 284.724L486.064 287.852L486.885 291.008L487.662 294.191L488.389 297.4L489.062 300.634L489.677 303.891L490.227 307.168L490.709 310.464L491.116 313.776L491.443 317.1L491.684 320.434L491.835 323.773L491.889 327.114L491.842 330.453L491.688 333.784L491.424 337.104L491.046 340.407L490.549 343.689L489.93 346.944L489.188 350.167L488.319 353.353L487.322 356.497L486.197 359.594L484.942 362.638L483.559 365.625L482.047 368.55L480.409 371.409L478.645 374.197L476.76 376.911L474.754 379.546L472.633 382.099L470.399 384.567L468.057 386.947L465.61 389.237L463.065 391.435L460.426 393.539L457.698 395.547L454.887 397.458L451.998 399.272L449.037 400.988L446.008 402.605" fill="#A4F9A2"/>
</g>
<defs>
<filter id="filter0_dddddd_7_86" x="0.0640717" y="0.689133" width="574.072" height="523.324" filterUnits="userSpaceOnUse" color-interpolation-filters="sRGB">
<feFlood flood-opacity="0" result="BackgroundImageFix"/>
<feColorMatrix in="SourceAlpha" type="matrix" values="0 0 0 0 0 0 0 0 0 0 0 0 0 0 0 0 0 0 127 0" result="hardAlpha"/>
<feOffset/>
<feGaussianBlur stdDeviation="0.97913"/>
<feColorMatrix type="matrix" values="0 0 0 0 0.643137 0 0 0 0 0.976471 0 0 0 0 0.635294 0 0 0 1 0"/>
<feBlend mode="normal" in2="BackgroundImageFix" result="effect1_dropShadow_7_86"/>
<feColorMatrix in="SourceAlpha" type="matrix" values="0 0 0 0 0 0 0 0 0 0 0 0 0 0 0 0 0 0 127 0" result="hardAlpha"/>
<feOffset/>
<feGaussianBlur stdDeviation="1.95826"/>
<feColorMatrix type="matrix" values="0 0 0 0 0.643137 0 0 0 0 0.976471 0 0 0 0 0.635294 0 0 0 1 0"/>
<feBlend mode="normal" in2="effect1_dropShadow_7_86" result="effect2_dropShadow_7_86"/>
<feColorMatrix in="SourceAlpha" type="matrix" values="0 0 0 0 0 0 0 0 0 0 0 0 0 0 0 0 0 0 127 0" result="hardAlpha"/>
<feOffset/>
<feGaussianBlur stdDeviation="6.85391"/>
<feColorMatrix type="matrix" values="0 0 0 0 0.643137 0 0 0 0 0.976471 0 0 0 0 0.635294 0 0 0 1 0"/>
<feBlend mode="normal" in2="effect2_dropShadow_7_86" result="effect3_dropShadow_7_86"/>
<feColorMatrix in="SourceAlpha" type="matrix" values="0 0 0 0 0 0 0 0 0 0 0 0 0 0 0 0 0 0 127 0" result="hardAlpha"/>
<feOffset/>
<feGaussianBlur stdDeviation="13.7078"/>
<feColorMatrix type="matrix" values="0 0 0 0 0.643137 0 0 0 0 0.976471 0 0 0 0 0.635294 0 0 0 1 0"/>
<feBlend mode="normal" in2="effect3_dropShadow_7_86" result="effect4_dropShadow_7_86"/>
<feColorMatrix in="SourceAlpha" type="matrix" values="0 0 0 0 0 0 0 0 0 0 0 0 0 0 0 0 0 0 127 0" result="hardAlpha"/>
<feOffset/>
<feGaussianBlur stdDeviation="23.4991"/>
<feColorMatrix type="matrix" values="0 0 0 0 0.643137 0 0 0 0 0.976471 0 0 0 0 0.635294 0 0 0 1 0"/>
<feBlend mode="normal" in2="effect4_dropShadow_7_86" result="effect5_dropShadow_7_86"/>
<feColorMatrix in="SourceAlpha" type="matrix" values="0 0 0 0 0 0 0 0 0 0 0 0 0 0 0 0 0 0 127 0" result="hardAlpha"/>
<feOffset/>
<feGaussianBlur stdDeviation="41.1235"/>
<feColorMatrix type="matrix" values="0 0 0 0 0.643137 0 0 0 0 0.976471 0 0 0 0 0.635294 0 0 0 1 0"/>
<feBlend mode="normal" in2="effect5_dropShadow_7_86" result="effect6_dropShadow_7_86"/>
<feBlend mode="normal" in="SourceGraphic" in2="effect6_dropShadow_7_86" result="shape"/>
</filter>
</defs>
</svg>
