<svg width="575" height="524" viewBox="0 0 575 524" fill="none" xmlns="http://www.w3.org/2000/svg">
<g filter="url(#filter0_dddddd_11_340)">
<path fill-rule="evenodd" clip-rule="evenodd" d="M446.008 402.082V402.082L442.919 403.602L439.774 405.023L436.58 406.347L433.34 407.575L430.062 408.707L426.75 409.744L423.409 410.689L420.045 411.542L416.661 412.306L413.264 412.983L409.858 413.574L406.448 414.083L403.038 414.513L399.633 414.866L396.237 415.145L392.853 415.354L389.486 415.495L386.138 415.572L382.813 415.588L379.513 415.545L376.241 415.448L373 415.299L369.792 415.103L366.621 414.863L363.488 414.585L360.396 414.273L357.348 413.934L354.346 413.571L351.391 413.19L348.485 412.796L345.627 412.393L342.818 411.984L340.059 411.573L337.348 411.163L334.686 410.757L332.071 410.359L329.502 409.97L326.978 409.594L324.499 409.232L322.063 408.888L319.668 408.563L317.313 408.259L314.996 407.98L312.716 407.726L310.471 407.5L308.259 407.303L306.077 407.138L303.925 407.006L301.799 406.909L299.698 406.847L297.619 406.823L295.561 406.837L293.52 406.89L291.495 406.984L289.483 407.118L287.481 407.295L285.487 407.513L283.499 407.773L281.514 408.076L279.529 408.422L277.542 408.81L275.551 409.24L273.552 409.712L271.544 410.225L269.524 410.779L267.489 411.373L265.437 412.005L263.367 412.677L261.274 413.385L259.158 414.13L257.015 414.909L254.844 415.723L252.642 416.568L250.408 417.445L248.139 418.351L245.834 419.284L243.49 420.243L241.105 421.226L238.679 422.231L236.209 423.255L233.694 424.296L231.132 425.35L228.522 426.415L225.865 427.488L223.158 428.564L220.401 429.64L217.594 430.71L214.738 431.769L211.834 432.812L208.881 433.834L205.883 434.827L202.84 435.784L199.757 436.697L196.637 437.557L193.484 438.353L190.306 439.075L187.107 439.713L183.895 440.254L180.678 440.689L177.466 441.005L174.266 441.194L171.09 441.243L167.948 441.144L164.851 440.888L161.809 440.467L158.834 439.875L155.937 439.106L153.128 438.156L150.418 437.023L147.817 435.705L145.334 434.202L142.979 432.515L140.761 430.647L138.686 428.6L136.762 426.38L134.994 423.993L133.389 421.446L131.949 418.746L130.678 415.903L129.577 412.927L128.648 409.827L127.889 406.616L127.299 403.305L126.875 399.907L126.612 396.435L126.505 392.9L126.548 389.318L126.733 385.701L127.05 382.062L127.491 378.414L128.043 374.771L128.694 371.145L129.433 367.548L130.246 363.99L131.118 360.484L132.034 357.04L132.98 353.665L133.94 350.37L134.898 347.16L135.839 344.043L136.746 341.024L137.606 338.106L138.401 335.294L139.119 332.588L139.745 329.991L140.267 327.5L140.671 325.116L140.948 322.834L141.087 320.653L141.079 318.567L140.918 316.57L140.597 314.657L140.113 312.82L139.463 311.052L138.645 309.344L137.661 307.688L136.513 306.074L135.205 304.493L133.741 302.936L132.13 301.393L130.379 299.855L128.498 298.314L126.497 296.76L124.388 295.186L122.182 293.584L119.894 291.946L117.538 290.267L115.129 288.54L112.684 286.76L110.222 284.922L107.762 283.024L105.322 281.063L102.922 279.036L100.581 276.944L98.3168 274.787L96.1475 272.566L94.0894 270.285L92.1573 267.946L90.3652 265.553L88.7261 263.112L87.2522 260.628L85.9545 258.108L84.8425 255.557L83.9246 252.984L83.2077 250.395L82.6972 247.799L82.3974 245.203L82.3109 242.615L82.4393 240.044L82.7825 237.497L83.3392 234.983L84.1066 232.509L85.0808 230.082L86.2565 227.709L87.627 225.396L89.1846 223.15L90.9204 220.976L92.8242 218.878L94.8852 216.86L97.0914 214.925L99.43 213.076L101.888 211.313L104.45 209.637L107.103 208.048L109.831 206.545L112.62 205.124L115.453 203.784L118.316 202.52L121.193 201.327L124.07 200.199L126.932 199.131L129.764 198.114L132.554 197.142L135.288 196.207L137.955 195.298L140.544 194.409L143.045 193.528L145.448 192.647L147.746 191.756L149.933 190.846L152.003 189.907L153.952 188.929L155.777 187.905L157.476 186.825L159.05 185.683L160.5 184.469L161.827 183.179L163.035 181.806L164.129 180.344L165.113 178.791L165.995 177.143L166.782 175.398L167.482 173.555L168.104 171.612L168.657 169.573L169.151 167.437L169.595 165.207L170.001 162.889L170.379 160.484L170.738 158L171.089 155.441L171.442 152.814L171.808 150.127L172.195 147.387L172.613 144.604L173.071 141.787L173.578 138.945L174.142 136.089L174.77 133.231L175.468 130.379L176.244 127.545L177.101 124.741L178.045 121.975L179.078 119.258L180.203 116.6L181.421 114.011L182.735 111.499L184.145 109.075L185.649 106.745L187.248 104.518L188.939 102.401L190.721 100.4L192.589 98.5212L194.542 96.7696L196.575 95.1497L198.684 93.6652L200.863 92.319L203.109 91.1132L205.416 90.0493L207.779 89.1277L210.19 88.3481L212.646 87.7094L215.139 87.2092L217.664 86.8449L220.215 86.6124L222.786 86.5071L225.37 86.5234L227.963 86.6549L230.559 86.8947L233.154 87.2347L235.741 87.6665L238.318 88.181L240.88 88.7686L243.423 89.419L245.946 90.1218L248.445 90.8663L250.919 91.6414L253.366 92.4362L255.787 93.2395L258.181 94.0403L260.549 94.828L262.892 95.592L265.211 96.3224L267.51 97.0095L269.79 97.6444L272.055 98.2189L274.309 98.7255L276.556 99.1575L278.8 99.5092L281.045 99.7758L283.297 99.9536L285.56 100.04L287.839 100.033L290.139 99.9324L292.465 99.7388L294.821 99.4539L297.213 99.0805L299.643 98.6223L302.115 98.0841L304.634 97.4716L307.201 96.7914L309.819 96.0508L312.49 95.2577L315.216 94.4204L317.996 93.5479L320.831 92.6493L323.722 91.7341L326.666 90.8122L329.663 89.8934L332.71 88.9877L335.805 88.1048L338.944 87.2542L342.125 86.4452L345.344 85.6868L348.595 84.9879L351.875 84.3569L355.179 83.8018L358.5 83.3301L361.833 82.949L365.173 82.6651L368.514 82.4846L371.848 82.4132L375.169 82.4564L378.471 82.6193L381.745 82.9066L384.986 83.3228L388.184 83.8716L391.332 84.5562L394.424 85.3791L397.451 86.342L400.407 87.4459L403.284 88.6908L406.076 90.0763L408.778 91.6007L411.384 93.2618L413.888 95.0566L416.287 96.9812L418.577 99.0311L420.754 101.201L422.817 103.486L424.765 105.879L426.595 108.373L428.309 110.961L429.907 113.636L431.391 116.39L432.763 119.215L434.025 122.102L435.182 125.044L436.239 128.032L437.199 131.059L438.069 134.116L438.855 137.195L439.563 140.289L440.201 143.392L440.776 146.495L441.295 149.593L441.767 152.68L442.2 155.751L442.602 158.8L442.982 161.824L443.347 164.818L443.705 167.781L444.066 170.708L444.435 173.598L444.821 176.451L445.231 179.264L445.671 182.039L446.147 184.775L446.665 187.475L447.229 190.138L447.843 192.767L448.511 195.365L449.237 197.934L450.02 200.478L450.863 202.999L451.766 205.503L452.727 207.992L453.746 210.471L454.819 212.945L455.943 215.416L457.113 217.891L458.323 220.372L459.566 222.865L460.836 225.372L462.124 227.897L463.425 230.443L464.731 233.012L466.037 235.606L467.337 238.227L468.627 240.876L469.902 243.554L471.16 246.262L472.396 248.999L473.609 251.766L474.798 254.564L475.962 257.391L477.1 260.249L478.213 263.138L479.3 266.056L480.359 269.005L481.39 271.985L482.391 274.994L483.362 278.034L484.299 281.103L485.2 284.202L486.064 287.329L486.885 290.485L487.662 293.668L488.389 296.877L489.062 300.111L489.677 303.368L490.227 306.645L490.709 309.941L491.116 313.253L491.443 316.577L491.684 319.911L491.835 323.25L491.889 326.591L491.842 329.93L491.688 333.261L491.424 336.581L491.046 339.884L490.549 343.166L489.93 346.421L489.188 349.644L488.319 352.83L487.322 355.974L486.197 359.071L484.942 362.115L483.559 365.102L482.047 368.028L480.409 370.886L478.645 373.675L476.76 376.388L474.754 379.023L472.633 381.576L470.399 384.044L468.056 386.424L465.61 388.714L463.065 390.912L460.426 393.016L457.698 395.024L454.887 396.935L451.998 398.749L449.036 400.465L446.008 402.082" fill="#A4F9A2"/>
</g>
<defs>
<filter id="filter0_dddddd_11_340" x="0.0640106" y="0.166183" width="574.072" height="523.324" filterUnits="userSpaceOnUse" color-interpolation-filters="sRGB">
<feFlood flood-opacity="0" result="BackgroundImageFix"/>
<feColorMatrix in="SourceAlpha" type="matrix" values="0 0 0 0 0 0 0 0 0 0 0 0 0 0 0 0 0 0 127 0" result="hardAlpha"/>
<feOffset/>
<feGaussianBlur stdDeviation="0.97913"/>
<feColorMatrix type="matrix" values="0 0 0 0 0.643137 0 0 0 0 0.976471 0 0 0 0 0.635294 0 0 0 1 0"/>
<feBlend mode="normal" in2="BackgroundImageFix" result="effect1_dropShadow_11_340"/>
<feColorMatrix in="SourceAlpha" type="matrix" values="0 0 0 0 0 0 0 0 0 0 0 0 0 0 0 0 0 0 127 0" result="hardAlpha"/>
<feOffset/>
<feGaussianBlur stdDeviation="1.95826"/>
<feColorMatrix type="matrix" values="0 0 0 0 0.643137 0 0 0 0 0.976471 0 0 0 0 0.635294 0 0 0 1 0"/>
<feBlend mode="normal" in2="effect1_dropShadow_11_340" result="effect2_dropShadow_11_340"/>
<feColorMatrix in="SourceAlpha" type="matrix" values="0 0 0 0 0 0 0 0 0 0 0 0 0 0 0 0 0 0 127 0" result="hardAlpha"/>
<feOffset/>
<feGaussianBlur stdDeviation="6.85391"/>
<feColorMatrix type="matrix" values="0 0 0 0 0.643137 0 0 0 0 0.976471 0 0 0 0 0.635294 0 0 0 1 0"/>
<feBlend mode="normal" in2="effect2_dropShadow_11_340" result="effect3_dropShadow_11_340"/>
<feColorMatrix in="SourceAlpha" type="matrix" values="0 0 0 0 0 0 0 0 0 0 0 0 0 0 0 0 0 0 127 0" result="hardAlpha"/>
<feOffset/>
<feGaussianBlur stdDeviation="13.7078"/>
<feColorMatrix type="matrix" values="0 0 0 0 0.643137 0 0 0 0 0.976471 0 0 0 0 0.635294 0 0 0 1 0"/>
<feBlend mode="normal" in2="effect3_dropShadow_11_340" result="effect4_dropShadow_11_340"/>
<feColorMatrix in="SourceAlpha" type="matrix" values="0 0 0 0 0 0 0 0 0 0 0 0 0 0 0 0 0 0 127 0" result="hardAlpha"/>
<feOffset/>
<feGaussianBlur stdDeviation="23.4991"/>
<feColorMatrix type="matrix" values="0 0 0 0 0.643137 0 0 0 0 0.976471 0 0 0 0 0.635294 0 0 0 1 0"/>
<feBlend mode="normal" in2="effect4_dropShadow_11_340" result="effect5_dropShadow_11_340"/>
<feColorMatrix in="SourceAlpha" type="matrix" values="0 0 0 0 0 0 0 0 0 0 0 0 0 0 0 0 0 0 127 0" result="hardAlpha"/>
<feOffset/>
<feGaussianBlur stdDeviation="41.1235"/>
<feColorMatrix type="matrix" values="0 0 0 0 0.643137 0 0 0 0 0.976471 0 0 0 0 0.635294 0 0 0 1 0"/>
<feBlend mode="normal" in2="effect5_dropShadow_11_340" result="effect6_dropShadow_11_340"/>
<feBlend mode="normal" in="SourceGraphic" in2="effect6_dropShadow_11_340" result="shape"/>
</filter>
</defs>
</svg>
