<svg width="904" height="689" viewBox="0 0 904 689" fill="none" xmlns="http://www.w3.org/2000/svg">
<g filter="url(#filter0_dddddd_7_87)">
<path fill-rule="evenodd" clip-rule="evenodd" d="M784.49 317.181V317.181L782.635 321.88L780.593 326.522L778.372 331.103L775.979 335.616L773.419 340.056L770.702 344.418L767.836 348.698L764.827 352.892L761.686 356.997L758.42 361.01L755.04 364.927L751.555 368.747L747.975 372.468L744.31 376.089L740.571 379.611L736.774 383.034L732.932 386.359L729.061 389.591L725.179 392.733L721.303 395.79L717.451 398.769L713.641 401.678L709.89 404.525L706.217 407.32L702.64 410.074L699.173 412.797L695.834 415.503L692.634 418.204L689.586 420.913L686.7 423.641L683.983 426.403L681.441 429.211L679.079 432.076L676.899 435.012L674.899 438.028L673.079 441.135L671.432 444.342L669.953 447.656L668.633 451.085L667.462 454.632L666.426 458.301L665.514 462.095L664.71 466.013L663.997 470.055L663.36 474.217L662.779 478.495L662.238 482.882L661.718 487.371L661.199 491.953L660.664 496.616L660.093 501.351L659.471 506.142L658.778 510.977L658 515.84L657.12 520.717L656.125 525.59L655.001 530.444L653.737 535.262L652.322 540.026L650.748 544.72L649.007 549.328L647.094 553.833L645.003 558.22L642.732 562.473L640.281 566.579L637.648 570.524L634.836 574.295L631.847 577.882L628.685 581.274L625.355 584.462L621.864 587.439L618.219 590.199L614.428 592.735L610.5 595.044L606.444 597.124L602.27 598.973L597.989 600.591L593.61 601.981L589.146 603.143L584.608 604.083L580.005 604.805L575.351 605.316L570.655 605.624L565.929 605.738L561.184 605.667L556.428 605.424L551.674 605.019L546.928 604.464L542.198 603.771L537.493 602.95L532.818 602.012L528.178 600.966L523.578 599.821L519.022 598.586L514.513 597.269L510.054 595.875L505.648 594.411L501.296 592.882L496.999 591.293L492.758 589.647L488.575 587.948L484.451 586.2L480.385 584.405L476.378 582.568L472.43 580.69L468.542 578.775L464.713 576.825L460.944 574.843L457.234 572.831L453.584 570.793L449.991 568.73L446.457 566.645L442.98 564.542L439.56 562.423L436.196 560.292L432.887 558.151L429.631 556.005L426.427 553.857L423.275 551.713L420.17 549.575L417.113 547.45L414.099 545.341L411.126 543.256L408.192 541.198L405.292 539.174L402.423 537.189L399.58 535.249L396.76 533.36L393.957 531.527L391.165 529.757L388.38 528.055L385.596 526.425L382.806 524.873L380.004 523.403L377.183 522.019L374.337 520.724L371.459 519.521L368.542 518.413L365.579 517.401L362.564 516.485L359.49 515.667L356.349 514.945L353.137 514.318L349.846 513.785L346.472 513.34L343.009 512.983L339.452 512.706L335.798 512.507L332.041 512.377L328.181 512.312L324.213 512.302L320.137 512.34L315.951 512.418L311.657 512.526L307.255 512.653L302.747 512.789L298.136 512.924L293.427 513.044L288.625 513.138L283.738 513.193L278.771 513.198L273.732 513.141L268.63 513.012L263.472 512.8L258.267 512.497L253.023 512.094L247.748 511.582L242.451 510.956L237.142 510.208L231.829 509.332L226.521 508.323L221.228 507.176L215.96 505.888L210.724 504.453L205.531 502.87L200.39 501.136L195.31 499.25L190.3 497.209L185.368 495.015L180.523 492.666L175.775 490.162L171.131 487.506L166.601 484.696L162.194 481.736L157.918 478.626L153.782 475.369L149.796 471.968L145.968 468.425L142.307 464.743L138.821 460.928L135.519 456.982L132.408 452.91L129.496 448.719L126.79 444.413L124.296 439.999L122.02 435.482L119.968 430.871L118.144 426.172L116.552 421.392L115.195 416.54L114.076 411.624L113.197 406.653L112.558 401.633L112.159 396.575L112 391.488L112.08 386.378L112.396 381.256L112.945 376.13L113.725 371.009L114.731 365.9L115.959 360.812L117.404 355.754L119.06 350.731L120.921 345.753L122.982 340.826L125.235 335.956L127.674 331.151L130.292 326.416L133.082 321.758L136.037 317.181L139.149 312.69L142.411 308.291L145.817 303.988L149.358 299.784L153.027 295.684L156.816 291.691L160.718 287.808L164.724 284.037L168.828 280.381L173.02 276.842L177.291 273.42L181.633 270.118L186.037 266.935L190.493 263.871L194.992 260.927L199.528 258.102L204.09 255.395L208.673 252.805L213.268 250.33L217.866 247.968L222.459 245.716L227.038 243.571L231.593 241.53L236.112 239.587L240.584 237.736L244.997 235.97L249.338 234.283L253.598 232.666L257.764 231.11L261.827 229.608L265.778 228.15L269.608 226.726L273.311 225.327L276.878 223.943L280.306 222.564L283.591 221.181L286.728 219.785L289.717 218.366L292.558 216.915L295.25 215.426L297.796 213.889L300.199 212.299L302.462 210.648L304.592 208.932L306.595 207.146L308.476 205.286L310.244 203.349L311.908 201.333L313.475 199.237L314.957 197.06L316.364 194.805L317.704 192.472L318.99 190.063L320.232 187.584L321.441 185.038L322.628 182.43L323.803 179.767L324.978 177.055L326.162 174.303L327.366 171.517L328.598 168.708L329.869 165.884L331.186 163.055L332.557 160.231L333.99 157.422L335.489 154.638L337.062 151.889L338.712 149.186L340.443 146.538L342.259 143.955L344.16 141.447L346.149 139.02L348.225 136.684L350.389 134.446L352.638 132.312L354.97 130.287L357.383 128.376L359.872 126.582L362.435 124.907L365.065 123.352L367.759 121.918L370.509 120.604L373.312 119.406L376.161 118.321L379.049 117.346L381.972 116.475L384.923 115.702L387.898 115.021L390.892 114.428L393.9 113.919L396.921 113.49L399.951 113.141L402.987 112.869L406.028 112.675L409.071 112.559L412.115 112.523L415.157 112.57L418.197 112.702L421.233 112.926L424.262 113.245L427.282 113.662L430.291 114.18L433.286 114.802L436.264 115.528L439.221 116.361L442.154 117.299L445.06 118.342L447.936 119.487L450.778 120.731L453.584 122.069L456.35 123.497L459.074 125.007L461.753 126.593L464.387 128.245L466.974 129.955L469.513 131.713L472.005 133.508L474.449 135.329L476.847 137.164L479.202 139.002L481.515 140.83L483.789 142.638L486.03 144.413L488.24 146.144L490.426 147.819L492.593 149.429L494.746 150.963L496.893 152.413L499.041 153.77L501.196 155.026L503.367 156.177L505.56 157.215L507.782 158.138L510.043 158.942L512.349 159.625L514.707 160.187L517.124 160.628L519.607 160.95L522.163 161.154L524.797 161.246L527.514 161.228L530.32 161.107L533.218 160.889L536.213 160.58L539.308 160.188L542.505 159.721L545.807 159.187L549.214 158.595L552.728 157.955L556.349 157.275L560.076 156.565L563.91 155.834L567.847 155.092L571.887 154.349L576.027 153.615L580.263 152.9L584.59 152.214L589.005 151.568L593.501 150.97L598.072 150.432L602.712 149.963L607.416 149.569L612.178 149.259L616.993 149.036L621.858 148.906L626.768 148.873L631.72 148.94L636.708 149.11L641.73 149.387L646.78 149.775L651.853 150.276L656.944 150.894L662.044 151.633L667.149 152.497L672.25 153.489L677.343 154.61L682.418 155.864L687.47 157.253L692.49 158.779L697.471 160.443L702.406 162.247L707.287 164.192L712.106 166.277L716.855 168.504L721.527 170.872L726.114 173.381L730.608 176.029L735.001 178.817L739.286 181.741L743.454 184.801L747.498 187.994L751.411 191.318L755.184 194.769L758.81 198.345L762.283 202.042L765.594 205.856L768.736 209.782L771.704 213.817L774.49 217.955L777.089 222.191L779.494 226.519L781.701 230.934L783.703 235.429L785.498 239.997L787.08 244.633L788.446 249.329L789.594 254.077L790.522 258.871L791.226 263.703L791.708 268.566L791.966 273.451L792 278.351L791.812 283.258L791.404 288.165L790.777 293.064L789.934 297.947L788.88 302.808L787.618 307.638L786.153 312.431L784.49 317.181" fill="#FFD4FF"/>
</g>
<defs>
<filter id="filter0_dddddd_7_87" x="0.00792694" y="0.530754" width="903.984" height="717.199" filterUnits="userSpaceOnUse" color-interpolation-filters="sRGB">
<feFlood flood-opacity="0" result="BackgroundImageFix"/>
<feColorMatrix in="SourceAlpha" type="matrix" values="0 0 0 0 0 0 0 0 0 0 0 0 0 0 0 0 0 0 127 0" result="hardAlpha"/>
<feOffset/>
<feGaussianBlur stdDeviation="1.33324"/>
<feColorMatrix type="matrix" values="0 0 0 0 1 0 0 0 0 0.831373 0 0 0 0 1 0 0 0 1 0"/>
<feBlend mode="normal" in2="BackgroundImageFix" result="effect1_dropShadow_7_87"/>
<feColorMatrix in="SourceAlpha" type="matrix" values="0 0 0 0 0 0 0 0 0 0 0 0 0 0 0 0 0 0 127 0" result="hardAlpha"/>
<feOffset/>
<feGaussianBlur stdDeviation="2.66648"/>
<feColorMatrix type="matrix" values="0 0 0 0 1 0 0 0 0 0.831373 0 0 0 0 1 0 0 0 1 0"/>
<feBlend mode="normal" in2="effect1_dropShadow_7_87" result="effect2_dropShadow_7_87"/>
<feColorMatrix in="SourceAlpha" type="matrix" values="0 0 0 0 0 0 0 0 0 0 0 0 0 0 0 0 0 0 127 0" result="hardAlpha"/>
<feOffset/>
<feGaussianBlur stdDeviation="9.33267"/>
<feColorMatrix type="matrix" values="0 0 0 0 1 0 0 0 0 0.831373 0 0 0 0 1 0 0 0 1 0"/>
<feBlend mode="normal" in2="effect2_dropShadow_7_87" result="effect3_dropShadow_7_87"/>
<feColorMatrix in="SourceAlpha" type="matrix" values="0 0 0 0 0 0 0 0 0 0 0 0 0 0 0 0 0 0 127 0" result="hardAlpha"/>
<feOffset/>
<feGaussianBlur stdDeviation="18.6653"/>
<feColorMatrix type="matrix" values="0 0 0 0 1 0 0 0 0 0.831373 0 0 0 0 1 0 0 0 1 0"/>
<feBlend mode="normal" in2="effect3_dropShadow_7_87" result="effect4_dropShadow_7_87"/>
<feColorMatrix in="SourceAlpha" type="matrix" values="0 0 0 0 0 0 0 0 0 0 0 0 0 0 0 0 0 0 127 0" result="hardAlpha"/>
<feOffset/>
<feGaussianBlur stdDeviation="31.9977"/>
<feColorMatrix type="matrix" values="0 0 0 0 1 0 0 0 0 0.831373 0 0 0 0 1 0 0 0 1 0"/>
<feBlend mode="normal" in2="effect4_dropShadow_7_87" result="effect5_dropShadow_7_87"/>
<feColorMatrix in="SourceAlpha" type="matrix" values="0 0 0 0 0 0 0 0 0 0 0 0 0 0 0 0 0 0 127 0" result="hardAlpha"/>
<feOffset/>
<feGaussianBlur stdDeviation="55.996"/>
<feColorMatrix type="matrix" values="0 0 0 0 1 0 0 0 0 0.831373 0 0 0 0 1 0 0 0 1 0"/>
<feBlend mode="normal" in2="effect5_dropShadow_7_87" result="effect6_dropShadow_7_87"/>
<feBlend mode="normal" in="SourceGraphic" in2="effect6_dropShadow_7_87" result="shape"/>
</filter>
</defs>
</svg>
