<svg width="780" height="587" viewBox="0 0 780 587" fill="none" xmlns="http://www.w3.org/2000/svg">
<g filter="url(#filter0_dddddd_7_87)">
<path fill-rule="evenodd" clip-rule="evenodd" d="M661.381 279.192V279.192L659.865 283.031L658.198 286.824L656.383 290.566L654.428 294.253L652.337 297.88L650.117 301.443L647.776 304.94L645.318 308.367L642.752 311.72L640.084 314.998L637.323 318.198L634.475 321.318L631.55 324.358L628.556 327.317L625.502 330.194L622.4 332.99L619.261 335.707L616.099 338.347L612.928 340.914L609.762 343.411L606.615 345.845L603.502 348.221L600.438 350.547L597.437 352.83L594.514 355.08L591.683 357.305L588.955 359.516L586.341 361.722L583.851 363.935L581.493 366.164L579.273 368.42L577.197 370.714L575.267 373.055L573.486 375.453L571.853 377.917L570.365 380.455L569.02 383.075L567.812 385.783L566.733 388.583L565.776 391.481L564.931 394.479L564.185 397.578L563.528 400.779L562.946 404.081L562.425 407.481L561.951 410.975L561.509 414.559L561.084 418.227L560.66 421.97L560.223 425.78L559.757 429.647L559.248 433.562L558.683 437.511L558.047 441.485L557.328 445.468L556.515 449.45L555.597 453.415L554.564 457.351L553.408 461.243L552.122 465.078L550.7 468.842L549.137 472.522L547.429 476.106L545.574 479.581L543.571 482.935L541.421 486.157L539.123 489.238L536.681 492.168L534.098 494.94L531.378 497.544L528.526 499.976L525.549 502.23L522.452 504.302L519.243 506.189L515.929 507.888L512.519 509.398L509.021 510.721L505.445 511.856L501.798 512.805L498.09 513.573L494.33 514.163L490.528 514.581L486.692 514.832L482.831 514.925L478.954 514.867L475.069 514.668L471.185 514.337L467.308 513.884L463.444 513.318L459.6 512.647L455.781 511.881L451.99 511.026L448.232 510.091L444.51 509.083L440.827 508.006L437.185 506.868L433.585 505.672L430.029 504.423L426.519 503.124L423.055 501.78L419.638 500.392L416.268 498.964L412.947 497.498L409.673 495.996L406.448 494.462L403.272 492.898L400.144 491.305L397.065 489.685L394.034 488.042L391.052 486.377L388.117 484.692L385.23 482.989L382.389 481.271L379.595 479.54L376.847 477.798L374.144 476.05L371.484 474.296L368.867 472.542L366.291 470.79L363.755 469.044L361.257 467.307L358.795 465.585L356.367 463.881L353.97 462.2L351.601 460.546L349.257 458.925L346.935 457.34L344.631 455.797L342.341 454.3L340.06 452.854L337.785 451.463L335.51 450.132L333.231 448.864L330.942 447.663L328.637 446.532L326.312 445.474L323.961 444.491L321.578 443.586L319.158 442.759L316.695 442.011L314.183 441.343L311.618 440.753L308.993 440.241L306.305 439.805L303.549 439.442L300.72 439.15L297.814 438.924L294.828 438.761L291.76 438.655L288.606 438.602L285.364 438.594L282.034 438.625L278.615 438.689L275.107 438.777L271.511 438.881L267.828 438.992L264.061 439.102L260.214 439.2L256.292 439.277L252.299 439.322L248.241 439.326L244.125 439.28L239.957 439.174L235.743 439.001L231.491 438.753L227.207 438.424L222.897 438.006L218.57 437.494L214.233 436.883L209.893 436.168L205.557 435.343L201.233 434.407L196.928 433.354L192.651 432.182L188.409 430.889L184.209 429.472L180.059 427.931L175.966 426.264L171.937 424.471L167.979 422.552L164.1 420.507L160.306 418.337L156.606 416.042L153.005 413.623L149.512 411.083L146.133 408.422L142.877 405.644L139.75 402.749L136.759 399.742L133.911 396.624L131.214 393.401L128.672 390.075L126.293 386.651L124.082 383.133L122.045 379.527L120.186 375.837L118.509 372.07L117.019 368.231L115.719 364.326L114.61 360.363L113.696 356.347L112.978 352.285L112.456 348.185L112.13 344.053L112 339.896L112.065 335.722L112.323 331.538L112.772 327.35L113.409 323.166L114.231 318.993L115.235 314.837L116.415 310.704L117.768 306.601L119.288 302.534L120.971 298.509L122.812 294.531L124.804 290.605L126.943 286.737L129.222 282.931L131.636 279.192L134.179 275.524L136.844 271.93L139.626 268.415L142.519 264.981L145.516 261.631L148.612 258.369L151.799 255.197L155.072 252.116L158.425 249.129L161.849 246.238L165.339 243.443L168.886 240.745L172.483 238.145L176.123 235.642L179.799 233.237L183.504 230.929L187.232 228.718L190.976 226.601L194.729 224.579L198.486 222.65L202.238 220.81L205.979 219.058L209.699 217.391L213.391 215.803L217.045 214.291L220.65 212.849L224.197 211.47L227.676 210.149L231.08 208.878L234.399 207.651L237.627 206.46L240.756 205.297L243.78 204.154L246.695 203.023L249.496 201.897L252.179 200.767L254.742 199.626L257.184 198.467L259.504 197.282L261.703 196.065L263.783 194.81L265.746 193.51L267.596 192.162L269.336 190.76L270.971 189.301L272.508 187.781L273.953 186.199L275.312 184.552L276.592 182.84L277.803 181.062L278.952 179.219L280.047 177.313L281.098 175.346L282.112 173.32L283.1 171.24L284.069 169.11L285.029 166.934L285.989 164.719L286.957 162.47L287.94 160.195L288.947 157.9L289.985 155.593L291.061 153.282L292.181 150.975L293.351 148.68L294.576 146.405L295.861 144.16L297.209 141.951L298.623 139.788L300.106 137.678L301.66 135.629L303.285 133.647L304.981 131.739L306.748 129.91L308.586 128.166L310.491 126.512L312.462 124.951L314.496 123.485L316.589 122.117L318.738 120.847L320.938 119.676L323.186 118.601L325.475 117.623L327.802 116.737L330.162 115.94L332.55 115.229L334.961 114.597L337.391 114.041L339.837 113.556L342.295 113.14L344.762 112.79L347.237 112.505L349.718 112.283L352.202 112.124L354.688 112.029L357.174 112L359.66 112.038L362.143 112.147L364.623 112.329L367.098 112.59L369.565 112.93L372.024 113.354L374.47 113.862L376.903 114.455L379.318 115.135L381.715 115.902L384.089 116.754L386.438 117.689L388.76 118.705L391.052 119.799L393.311 120.965L395.537 122.199L397.726 123.494L399.878 124.844L401.991 126.241L404.065 127.677L406.101 129.143L408.098 130.631L410.057 132.13L411.98 133.632L413.87 135.125L415.728 136.602L417.558 138.052L419.364 139.466L421.15 140.835L422.92 142.15L424.679 143.403L426.433 144.588L428.188 145.696L429.948 146.723L431.721 147.662L433.513 148.511L435.329 149.265L437.176 149.921L439.059 150.48L440.985 150.939L442.96 151.299L444.989 151.562L447.077 151.729L449.228 151.804L451.448 151.789L453.74 151.69L456.108 151.512L458.555 151.26L461.083 150.939L463.695 150.558L466.392 150.122L469.176 149.638L472.046 149.115L475.004 148.559L478.05 147.979L481.181 147.382L484.398 146.776L487.698 146.17L491.08 145.57L494.54 144.986L498.076 144.425L501.682 143.897L505.355 143.409L509.089 142.97L512.88 142.586L516.723 142.265L520.613 142.011L524.547 141.829L528.521 141.723L532.532 141.696L536.577 141.75L540.653 141.89L544.755 142.116L548.881 142.432L553.025 142.842L557.184 143.347L561.351 143.951L565.521 144.656L569.689 145.466L573.849 146.383L577.995 147.407L582.122 148.542L586.223 149.789L590.292 151.148L594.324 152.622L598.311 154.21L602.248 155.914L606.128 157.733L609.945 159.668L613.692 161.717L617.363 163.881L620.952 166.158L624.452 168.547L627.857 171.047L631.161 173.655L634.357 176.37L637.44 179.19L640.402 182.111L643.239 185.131L645.944 188.247L648.511 191.455L650.936 194.751L653.212 198.131L655.335 201.592L657.3 205.128L659.102 208.734L660.738 212.406L662.204 216.138L663.497 219.925L664.613 223.761L665.551 227.641L666.308 231.557L666.884 235.505L667.278 239.477L667.488 243.468L667.516 247.471L667.363 251.48L667.029 255.488L666.517 259.491L665.829 263.48L664.967 267.451L663.936 271.397L662.74 275.312L661.381 279.192" fill="#FFD4FF"/>
</g>
<defs>
<filter id="filter0_dddddd_7_87" x="0.00792694" y="0.00792694" width="779.5" height="626.909" filterUnits="userSpaceOnUse" color-interpolation-filters="sRGB">
<feFlood flood-opacity="0" result="BackgroundImageFix"/>
<feColorMatrix in="SourceAlpha" type="matrix" values="0 0 0 0 0 0 0 0 0 0 0 0 0 0 0 0 0 0 127 0" result="hardAlpha"/>
<feOffset/>
<feGaussianBlur stdDeviation="1.33324"/>
<feColorMatrix type="matrix" values="0 0 0 0 1 0 0 0 0 0.831373 0 0 0 0 1 0 0 0 1 0"/>
<feBlend mode="normal" in2="BackgroundImageFix" result="effect1_dropShadow_7_87"/>
<feColorMatrix in="SourceAlpha" type="matrix" values="0 0 0 0 0 0 0 0 0 0 0 0 0 0 0 0 0 0 127 0" result="hardAlpha"/>
<feOffset/>
<feGaussianBlur stdDeviation="2.66648"/>
<feColorMatrix type="matrix" values="0 0 0 0 1 0 0 0 0 0.831373 0 0 0 0 1 0 0 0 1 0"/>
<feBlend mode="normal" in2="effect1_dropShadow_7_87" result="effect2_dropShadow_7_87"/>
<feColorMatrix in="SourceAlpha" type="matrix" values="0 0 0 0 0 0 0 0 0 0 0 0 0 0 0 0 0 0 127 0" result="hardAlpha"/>
<feOffset/>
<feGaussianBlur stdDeviation="9.33267"/>
<feColorMatrix type="matrix" values="0 0 0 0 1 0 0 0 0 0.831373 0 0 0 0 1 0 0 0 1 0"/>
<feBlend mode="normal" in2="effect2_dropShadow_7_87" result="effect3_dropShadow_7_87"/>
<feColorMatrix in="SourceAlpha" type="matrix" values="0 0 0 0 0 0 0 0 0 0 0 0 0 0 0 0 0 0 127 0" result="hardAlpha"/>
<feOffset/>
<feGaussianBlur stdDeviation="18.6653"/>
<feColorMatrix type="matrix" values="0 0 0 0 1 0 0 0 0 0.831373 0 0 0 0 1 0 0 0 1 0"/>
<feBlend mode="normal" in2="effect3_dropShadow_7_87" result="effect4_dropShadow_7_87"/>
<feColorMatrix in="SourceAlpha" type="matrix" values="0 0 0 0 0 0 0 0 0 0 0 0 0 0 0 0 0 0 127 0" result="hardAlpha"/>
<feOffset/>
<feGaussianBlur stdDeviation="31.9977"/>
<feColorMatrix type="matrix" values="0 0 0 0 1 0 0 0 0 0.831373 0 0 0 0 1 0 0 0 1 0"/>
<feBlend mode="normal" in2="effect4_dropShadow_7_87" result="effect5_dropShadow_7_87"/>
<feColorMatrix in="SourceAlpha" type="matrix" values="0 0 0 0 0 0 0 0 0 0 0 0 0 0 0 0 0 0 127 0" result="hardAlpha"/>
<feOffset/>
<feGaussianBlur stdDeviation="55.996"/>
<feColorMatrix type="matrix" values="0 0 0 0 1 0 0 0 0 0.831373 0 0 0 0 1 0 0 0 1 0"/>
<feBlend mode="normal" in2="effect5_dropShadow_7_87" result="effect6_dropShadow_7_87"/>
<feBlend mode="normal" in="SourceGraphic" in2="effect6_dropShadow_7_87" result="shape"/>
</filter>
</defs>
</svg>
