<svg width="571" height="552" viewBox="0 0 571 552" fill="none" xmlns="http://www.w3.org/2000/svg">
<g filter="url(#filter0_dddddd_7_85)">
<path fill-rule="evenodd" clip-rule="evenodd" d="M344.298 168.903V168.903L345.122 169.921L345.927 170.944L346.716 171.973L347.488 173.006L348.243 174.043L348.982 175.083L349.706 176.125L350.414 177.169L351.108 178.213L351.789 179.255L352.457 180.296L353.114 181.332L353.761 182.364L354.399 183.391L355.029 184.409L355.654 185.42L356.274 186.421L356.891 187.411L357.508 188.389L358.125 189.354L358.745 190.305L359.369 191.242L360 192.163L360.639 193.068L361.288 193.957L361.949 194.828L362.624 195.682L363.315 196.519L364.025 197.337L364.753 198.139L365.503 198.922L366.277 199.689L367.074 200.44L367.899 201.174L368.75 201.893L369.631 202.598L370.542 203.289L371.484 203.969L372.458 204.637L373.466 205.295L374.506 205.945L375.581 206.589L376.69 207.227L377.834 207.862L379.013 208.494L380.226 209.127L381.473 209.762L382.754 210.4L384.069 211.043L385.416 211.694L386.794 212.354L388.204 213.024L389.643 213.708L391.111 214.407L392.605 215.122L394.125 215.855L395.668 216.609L397.233 217.384L398.817 218.183L400.42 219.006L402.038 219.856L403.669 220.734L405.311 221.641L406.962 222.579L408.618 223.548L410.278 224.55L411.938 225.585L413.597 226.655L415.251 227.76L416.897 228.9L418.533 230.077L420.156 231.29L421.762 232.54L423.351 233.826L424.918 235.15L426.46 236.51L427.976 237.907L429.462 239.339L430.917 240.808L432.337 242.311L433.719 243.849L435.063 245.42L436.364 247.024L437.622 248.66L438.834 250.326L439.999 252.022L441.113 253.746L442.177 255.497L443.187 257.273L444.143 259.074L445.044 260.896L445.887 262.74L446.672 264.604L447.398 266.485L448.065 268.382L448.67 270.294L449.214 272.218L449.696 274.153L450.116 276.098L450.473 278.051L450.768 280.009L451 281.971L451.169 283.936L451.276 285.902L451.321 287.867L451.305 289.829L451.228 291.788L451.09 293.741L450.893 295.687L450.638 297.625L450.325 299.553L449.955 301.47L449.53 303.374L449.05 305.265L448.518 307.142L447.933 309.002L447.298 310.846L446.615 312.672L445.883 314.48L445.105 316.268L444.282 318.037L443.416 319.784L442.507 321.51L441.558 323.213L440.569 324.894L439.542 326.551L438.478 328.184L437.378 329.793L436.244 331.377L435.077 332.935L433.878 334.468L432.649 335.976L431.391 337.458L430.107 338.914L428.797 340.345L427.463 341.75L426.107 343.13L424.731 344.486L423.335 345.817L421.923 347.125L420.495 348.41L419.053 349.673L417.598 350.914L416.133 352.135L414.659 353.337L413.177 354.521L411.688 355.687L410.195 356.837L408.698 357.973L407.198 359.095L405.698 360.205L404.197 361.304L402.697 362.394L401.199 363.476L399.703 364.552L398.211 365.623L396.722 366.69L395.238 367.754L393.759 368.818L392.284 369.883L390.815 370.949L389.351 372.018L387.893 373.092L386.439 374.171L384.99 375.256L383.546 376.349L382.106 377.449L380.669 378.559L379.235 379.679L377.804 380.808L376.373 381.948L374.943 383.099L373.512 384.26L372.08 385.433L370.645 386.616L369.206 387.81L367.763 389.014L366.313 390.228L364.857 391.451L363.392 392.683L361.918 393.923L360.433 395.169L358.937 396.422L357.429 397.68L355.906 398.942L354.369 400.206L352.816 401.472L351.246 402.737L349.658 404.001L348.052 405.261L346.427 406.515L344.781 407.762L343.115 409L341.427 410.227L339.717 411.44L337.984 412.638L336.229 413.819L334.451 414.979L332.65 416.118L330.825 417.232L328.977 418.319L327.106 419.377L325.212 420.405L323.295 421.399L321.357 422.358L319.396 423.279L317.415 424.161L315.413 425.002L313.392 425.799L311.352 426.552L309.295 427.259L307.221 427.918L305.132 428.529L303.028 429.09L300.912 429.6L298.783 430.058L296.644 430.463L294.495 430.814L292.339 431.11L290.176 431.351L288.008 431.536L285.837 431.665L283.663 431.736L281.488 431.75L279.314 431.705L277.143 431.603L274.976 431.443L272.813 431.224L270.658 430.947L268.511 430.612L266.374 430.219L264.248 429.769L262.134 429.262L260.035 428.698L257.951 428.079L255.884 427.405L253.836 426.677L251.806 425.895L249.797 425.061L247.81 424.176L245.846 423.241L243.905 422.257L241.99 421.226L240.1 420.148L238.236 419.026L236.4 417.861L234.592 416.654L232.812 415.406L231.062 414.12L229.341 412.797L227.65 411.439L225.989 410.047L224.359 408.624L222.76 407.17L221.192 405.688L219.654 404.178L218.147 402.644L216.672 401.087L215.226 399.507L213.811 397.908L212.426 396.29L211.071 394.655L209.744 393.006L208.445 391.345L207.174 389.672L205.929 387.99L204.709 386.302L203.513 384.608L202.34 382.91L201.187 381.212L200.055 379.513L198.941 377.816L197.844 376.123L196.763 374.434L195.694 372.751L194.638 371.076L193.591 369.41L192.553 367.753L191.522 366.106L190.495 364.471L189.472 362.847L188.45 361.236L187.429 359.638L186.405 358.052L185.379 356.48L184.348 354.921L183.31 353.375L182.265 351.842L181.212 350.321L180.148 348.813L179.073 347.316L177.986 345.83L176.886 344.354L175.771 342.887L174.642 341.429L173.497 339.979L172.335 338.536L171.156 337.098L169.96 335.665L168.746 334.235L167.514 332.807L166.264 331.379L164.997 329.951L163.712 328.52L162.412 327.085L161.095 325.645L159.765 324.198L158.42 322.742L157.064 321.276L155.697 319.798L154.321 318.307L152.939 316.801L151.551 315.278L150.16 313.738L148.769 312.179L147.379 310.599L145.993 308.998L144.614 307.375L143.245 305.728L141.888 304.057L140.545 302.36L139.22 300.639L137.916 298.891L136.636 297.116L135.381 295.315L134.157 293.487L132.964 291.633L131.806 289.752L130.686 287.845L129.607 285.912L128.571 283.954L127.581 281.971L126.639 279.965L125.748 277.936L124.91 275.886L124.127 273.815L123.401 271.725L122.734 269.617L122.128 267.493L121.584 265.354L121.104 263.202L120.689 261.039L120.34 258.865L120.057 256.684L119.842 254.497L119.696 252.305L119.617 250.111L119.606 247.917L119.663 245.723L119.787 243.532L119.977 241.347L120.231 239.167L120.55 236.996L120.93 234.834L121.37 232.683L121.869 230.544L122.423 228.419L123.032 226.308L123.693 224.213L124.403 222.134L125.16 220.073L125.961 218.03L126.804 216.005L127.686 213.998L128.605 212.011L129.558 210.043L130.543 208.094L131.556 206.165L132.596 204.254L133.661 202.362L134.748 200.489L135.854 198.634L136.979 196.797L138.12 194.977L139.275 193.174L140.443 191.387L141.623 189.616L142.813 187.859L144.013 186.118L145.221 184.39L146.437 182.677L147.661 180.976L148.891 179.289L150.129 177.614L151.374 175.951L152.626 174.301L153.885 172.664L155.152 171.038L156.426 169.425L157.709 167.824L159 166.235L160.301 164.659L161.611 163.096L162.932 161.546L164.264 160.011L165.608 158.489L166.964 156.983L168.333 155.492L169.716 154.018L171.114 152.56L172.527 151.121L173.957 149.701L175.402 148.301L176.866 146.921L178.347 145.564L179.846 144.23L181.365 142.92L182.903 141.636L184.46 140.378L186.038 139.147L187.635 137.946L189.253 136.775L190.892 135.635L192.551 134.527L194.23 133.453L195.929 132.413L197.648 131.409L199.386 130.442L201.144 129.512L202.92 128.621L204.714 127.769L206.526 126.957L208.354 126.186L210.198 125.456L212.058 124.768L213.931 124.123L215.817 123.52L217.715 122.96L219.625 122.443L221.544 121.969L223.472 121.538L225.408 121.151L227.35 120.807L229.298 120.505L231.25 120.246L233.205 120.03L235.161 119.855L237.119 119.722L239.076 119.63L241.032 119.579L242.985 119.567L244.935 119.595L246.88 119.661L248.819 119.765L250.751 119.907L252.675 120.084L254.591 120.296L256.497 120.543L258.392 120.823L260.276 121.135L262.147 121.478L264.006 121.851L265.851 122.254L267.681 122.684L269.497 123.141L271.297 123.624L273.081 124.131L274.848 124.662L276.599 125.215L278.331 125.789L280.047 126.383L281.744 126.997L283.423 127.628L285.083 128.276L286.725 128.94L288.348 129.618L289.953 130.31L291.538 131.015L293.105 131.731L294.652 132.458L296.181 133.195L297.691 133.942L299.183 134.696L300.657 135.458L302.112 136.227L303.549 137.003L304.968 137.785L306.37 138.573L307.755 139.366L309.122 140.165L310.472 140.968L311.806 141.776L313.123 142.589L314.423 143.407L315.707 144.23L316.976 145.058L318.228 145.89L319.464 146.728L320.685 147.571L321.889 148.42L323.078 149.275L324.252 150.135L325.409 151.002L326.551 151.875L327.678 152.756L328.788 153.643L329.882 154.537L330.961 155.439L332.023 156.349L333.069 157.267L334.098 158.192L335.111 159.126L336.107 160.068L337.086 161.018L338.048 161.977L338.993 162.943L339.921 163.918L340.831 164.9L341.724 165.89L342.6 166.888L343.458 167.892L344.298 168.903" fill="#FDA79C"/>
</g>
<defs>
<filter id="filter0_dddddd_7_85" x="0.204811" y="0.165749" width="570.518" height="550.985" filterUnits="userSpaceOnUse" color-interpolation-filters="sRGB">
<feFlood flood-opacity="0" result="BackgroundImageFix"/>
<feColorMatrix in="SourceAlpha" type="matrix" values="0 0 0 0 0 0 0 0 0 0 0 0 0 0 0 0 0 0 127 0" result="hardAlpha"/>
<feOffset/>
<feGaussianBlur stdDeviation="1.42145"/>
<feColorMatrix type="matrix" values="0 0 0 0 0.992157 0 0 0 0 0.654902 0 0 0 0 0.611765 0 0 0 1 0"/>
<feBlend mode="normal" in2="BackgroundImageFix" result="effect1_dropShadow_7_85"/>
<feColorMatrix in="SourceAlpha" type="matrix" values="0 0 0 0 0 0 0 0 0 0 0 0 0 0 0 0 0 0 127 0" result="hardAlpha"/>
<feOffset/>
<feGaussianBlur stdDeviation="2.84289"/>
<feColorMatrix type="matrix" values="0 0 0 0 0.992157 0 0 0 0 0.654902 0 0 0 0 0.611765 0 0 0 1 0"/>
<feBlend mode="normal" in2="effect1_dropShadow_7_85" result="effect2_dropShadow_7_85"/>
<feColorMatrix in="SourceAlpha" type="matrix" values="0 0 0 0 0 0 0 0 0 0 0 0 0 0 0 0 0 0 127 0" result="hardAlpha"/>
<feOffset/>
<feGaussianBlur stdDeviation="9.95013"/>
<feColorMatrix type="matrix" values="0 0 0 0 0.992157 0 0 0 0 0.654902 0 0 0 0 0.611765 0 0 0 1 0"/>
<feBlend mode="normal" in2="effect2_dropShadow_7_85" result="effect3_dropShadow_7_85"/>
<feColorMatrix in="SourceAlpha" type="matrix" values="0 0 0 0 0 0 0 0 0 0 0 0 0 0 0 0 0 0 127 0" result="hardAlpha"/>
<feOffset/>
<feGaussianBlur stdDeviation="19.9003"/>
<feColorMatrix type="matrix" values="0 0 0 0 0.992157 0 0 0 0 0.654902 0 0 0 0 0.611765 0 0 0 1 0"/>
<feBlend mode="normal" in2="effect3_dropShadow_7_85" result="effect4_dropShadow_7_85"/>
<feColorMatrix in="SourceAlpha" type="matrix" values="0 0 0 0 0 0 0 0 0 0 0 0 0 0 0 0 0 0 127 0" result="hardAlpha"/>
<feOffset/>
<feGaussianBlur stdDeviation="34.1147"/>
<feColorMatrix type="matrix" values="0 0 0 0 0.992157 0 0 0 0 0.654902 0 0 0 0 0.611765 0 0 0 1 0"/>
<feBlend mode="normal" in2="effect4_dropShadow_7_85" result="effect5_dropShadow_7_85"/>
<feColorMatrix in="SourceAlpha" type="matrix" values="0 0 0 0 0 0 0 0 0 0 0 0 0 0 0 0 0 0 127 0" result="hardAlpha"/>
<feOffset/>
<feGaussianBlur stdDeviation="59.7008"/>
<feColorMatrix type="matrix" values="0 0 0 0 0.992157 0 0 0 0 0.654902 0 0 0 0 0.611765 0 0 0 1 0"/>
<feBlend mode="normal" in2="effect5_dropShadow_7_85" result="effect6_dropShadow_7_85"/>
<feBlend mode="normal" in="SourceGraphic" in2="effect6_dropShadow_7_85" result="shape"/>
</filter>
</defs>
</svg>
