<svg width="524" height="507" viewBox="0 0 524 507" fill="none" xmlns="http://www.w3.org/2000/svg">
<g filter="url(#filter0_dddddd_11_175)">
<path fill-rule="evenodd" clip-rule="evenodd" d="M312.868 162.269V162.269L313.573 163.141L314.264 164.018L314.94 164.9L315.602 165.785L316.249 166.674L316.882 167.566L317.502 168.459L318.109 169.354L318.704 170.248L319.288 171.142L319.861 172.034L320.424 172.922L320.978 173.807L321.525 174.687L322.065 175.56L322.601 176.426L323.132 177.284L323.662 178.132L324.19 178.971L324.719 179.798L325.25 180.613L325.785 181.416L326.326 182.206L326.874 182.982L327.43 183.743L327.997 184.49L328.576 185.222L329.168 185.939L329.776 186.641L330.4 187.328L331.043 188L331.706 188.657L332.39 189.3L333.096 189.929L333.826 190.546L334.581 191.15L335.362 191.743L336.17 192.325L337.005 192.898L337.868 193.462L338.76 194.019L339.682 194.571L340.632 195.118L341.613 195.662L342.623 196.204L343.662 196.747L344.732 197.29L345.83 197.837L346.956 198.389L348.111 198.946L349.293 199.512L350.501 200.087L351.735 200.673L352.992 201.272L354.273 201.885L355.576 202.513L356.899 203.159L358.24 203.824L359.598 204.508L360.972 205.214L362.359 205.943L363.757 206.696L365.164 207.473L366.579 208.277L367.999 209.107L369.422 209.966L370.845 210.854L372.266 211.77L373.684 212.717L375.095 213.695L376.497 214.703L377.888 215.743L379.265 216.814L380.627 217.917L381.97 219.052L383.292 220.217L384.591 221.415L385.865 222.643L387.112 223.901L388.329 225.19L389.514 226.508L390.666 227.855L391.781 229.23L392.86 230.632L393.898 232.06L394.896 233.514L395.852 234.991L396.763 236.492L397.629 238.015L398.449 239.558L399.221 241.12L399.944 242.701L400.617 244.298L401.239 245.91L401.81 247.536L402.329 249.175L402.795 250.824L403.209 252.483L403.568 254.15L403.875 255.824L404.127 257.502L404.326 259.184L404.471 260.869L404.563 262.553L404.602 264.238L404.588 265.92L404.521 267.599L404.404 269.273L404.235 270.941L404.016 272.602L403.747 274.254L403.43 275.897L403.066 277.53L402.655 279.15L402.198 280.759L401.697 282.354L401.153 283.934L400.567 285.5L399.94 287.049L399.273 288.582L398.568 290.097L397.825 291.595L397.047 293.074L396.233 294.534L395.385 295.975L394.505 297.395L393.593 298.795L392.65 300.174L391.678 301.532L390.678 302.868L389.65 304.182L388.597 305.474L387.519 306.744L386.418 307.992L385.295 309.219L384.152 310.423L382.989 311.606L381.81 312.768L380.614 313.909L379.403 315.03L378.179 316.132L376.943 317.214L375.696 318.278L374.44 319.325L373.177 320.355L371.906 321.37L370.63 322.369L369.35 323.355L368.067 324.329L366.782 325.29L365.496 326.242L364.209 327.184L362.924 328.118L361.639 329.046L360.357 329.968L359.078 330.886L357.802 331.8L356.53 332.713L355.262 333.625L353.998 334.537L352.739 335.451L351.484 336.367L350.234 337.288L348.988 338.212L347.746 339.143L346.509 340.079L345.274 341.023L344.043 341.974L342.814 342.934L341.586 343.902L340.36 344.879L339.134 345.865L337.908 346.861L336.68 347.866L335.45 348.88L334.217 349.903L332.98 350.935L331.738 351.976L330.489 353.024L329.234 354.08L327.97 355.143L326.698 356.211L325.415 357.285L324.122 358.363L322.817 359.445L321.499 360.529L320.168 361.614L318.823 362.698L317.462 363.781L316.085 364.861L314.692 365.936L313.281 367.005L311.853 368.066L310.406 369.118L308.941 370.158L307.456 371.185L305.951 372.196L304.427 373.191L302.883 374.167L301.319 375.122L299.735 376.054L298.131 376.961L296.508 377.842L294.865 378.694L293.203 379.516L291.523 380.305L289.825 381.061L288.109 381.782L286.376 382.465L284.628 383.111L282.865 383.717L281.087 384.282L279.296 384.805L277.493 385.286L275.679 385.723L273.854 386.115L272.021 386.463L270.179 386.764L268.331 387.018L266.477 387.224L264.619 387.383L262.757 387.493L260.894 387.554L259.03 387.566L257.167 387.528L255.306 387.44L253.448 387.303L251.595 387.115L249.747 386.878L247.907 386.591L246.075 386.254L244.253 385.868L242.441 385.433L240.642 384.95L238.856 384.42L237.084 383.842L235.328 383.218L233.589 382.548L231.867 381.833L230.164 381.074L228.48 380.273L226.817 379.43L225.175 378.546L223.554 377.622L221.957 376.66L220.383 375.661L218.833 374.626L217.308 373.557L215.807 372.455L214.332 371.321L212.883 370.157L211.46 368.964L210.063 367.744L208.692 366.498L207.348 365.227L206.03 363.933L204.738 362.618L203.473 361.283L202.234 359.929L201.022 358.558L199.834 357.172L198.673 355.771L197.535 354.357L196.422 352.933L195.333 351.499L194.265 350.058L193.22 348.61L192.194 347.158L191.189 345.704L190.201 344.248L189.231 342.792L188.276 341.337L187.336 339.886L186.408 338.438L185.493 336.996L184.587 335.56L183.69 334.132L182.8 332.711L181.916 331.3L181.036 329.898L180.159 328.507L179.284 327.126L178.408 325.756L177.531 324.397L176.651 323.049L175.767 321.713L174.878 320.388L173.982 319.073L173.079 317.77L172.167 316.477L171.246 315.194L170.314 313.92L169.371 312.655L168.416 311.398L167.448 310.148L166.466 308.905L165.47 307.668L164.46 306.436L163.434 305.207L162.394 303.981L161.338 302.757L160.267 301.534L159.18 300.31L158.08 299.083L156.965 297.854L155.836 296.619L154.696 295.379L153.544 294.131L152.381 292.874L151.209 291.608L150.03 290.329L148.845 289.038L147.655 287.733L146.463 286.413L145.271 285.077L144.08 283.723L142.892 282.35L141.71 280.959L140.536 279.547L139.373 278.115L138.222 276.661L137.087 275.185L135.969 273.687L134.871 272.166L133.796 270.622L132.746 269.055L131.724 267.466L130.731 265.853L129.772 264.219L128.846 262.562L127.958 260.883L127.11 259.184L126.302 257.465L125.539 255.726L124.82 253.968L124.149 252.193L123.527 250.402L122.955 248.595L122.436 246.774L121.97 244.941L121.558 243.096L121.202 241.242L120.903 239.379L120.661 237.51L120.477 235.635L120.351 233.756L120.284 231.876L120.274 229.995L120.323 228.114L120.429 226.237L120.592 224.363L120.81 222.495L121.083 220.634L121.409 218.781L121.786 216.937L122.214 215.104L122.689 213.282L123.211 211.473L123.777 209.677L124.386 207.896L125.035 206.129L125.721 204.377L126.444 202.641L127.2 200.922L127.988 199.218L128.805 197.531L129.649 195.861L130.517 194.207L131.409 192.57L132.321 190.948L133.253 189.343L134.201 187.753L135.165 186.178L136.143 184.618L137.133 183.072L138.135 181.541L139.146 180.022L140.166 178.517L141.194 177.024L142.23 175.544L143.272 174.075L144.321 172.617L145.376 171.171L146.437 169.735L147.504 168.31L148.577 166.896L149.656 165.492L150.742 164.099L151.834 162.716L152.934 161.343L154.041 159.982L155.156 158.631L156.279 157.291L157.411 155.963L158.552 154.647L159.704 153.343L160.866 152.051L162.04 150.774L163.226 149.51L164.424 148.261L165.635 147.027L166.86 145.81L168.1 144.61L169.354 143.427L170.623 142.264L171.909 141.12L173.21 139.998L174.529 138.897L175.864 137.818L177.216 136.764L178.585 135.734L179.972 134.73L181.376 133.753L182.798 132.804L184.237 131.883L185.694 130.992L187.167 130.131L188.657 129.302L190.164 128.505L191.686 127.741L193.224 127.011L194.777 126.315L196.344 125.654L197.925 125.029L199.518 124.439L201.124 123.886L202.741 123.369L204.368 122.889L206.004 122.446L207.65 122.04L209.302 121.671L210.961 121.338L212.626 121.043L214.296 120.785L215.969 120.563L217.644 120.377L219.322 120.228L221 120.114L222.677 120.035L224.354 119.991L226.028 119.981L227.699 120.005L229.366 120.062L231.028 120.151L232.684 120.272L234.333 120.424L235.975 120.606L237.609 120.817L239.233 121.057L240.848 121.324L242.452 121.619L244.045 121.939L245.627 122.283L247.196 122.652L248.752 123.044L250.295 123.458L251.824 123.893L253.339 124.348L254.839 124.822L256.325 125.314L257.795 125.823L259.25 126.349L260.689 126.89L262.112 127.445L263.519 128.014L264.91 128.596L266.286 129.189L267.644 129.793L268.987 130.407L270.314 131.031L271.624 131.662L272.919 132.302L274.197 132.948L275.46 133.602L276.708 134.261L277.94 134.926L279.156 135.596L280.358 136.272L281.544 136.952L282.716 137.636L283.874 138.325L285.017 139.017L286.146 139.714L287.26 140.415L288.361 141.121L289.448 141.83L290.521 142.544L291.581 143.262L292.627 143.984L293.66 144.712L294.679 145.444L295.685 146.182L296.677 146.925L297.656 147.674L298.621 148.428L299.573 149.188L300.511 149.955L301.435 150.728L302.346 151.508L303.242 152.295L304.124 153.088L304.993 153.888L305.846 154.696L306.686 155.51L307.51 156.332L308.32 157.16L309.116 157.996L309.896 158.838L310.661 159.686L311.412 160.541L312.147 161.402L312.868 162.269" fill="#FDA79C"/>
</g>
<defs>
<filter id="filter0_dddddd_11_175" x="0.872902" y="0.579445" width="523.13" height="506.388" filterUnits="userSpaceOnUse" color-interpolation-filters="sRGB">
<feFlood flood-opacity="0" result="BackgroundImageFix"/>
<feColorMatrix in="SourceAlpha" type="matrix" values="0 0 0 0 0 0 0 0 0 0 0 0 0 0 0 0 0 0 127 0" result="hardAlpha"/>
<feOffset/>
<feGaussianBlur stdDeviation="1.42145"/>
<feColorMatrix type="matrix" values="0 0 0 0 0.992157 0 0 0 0 0.654902 0 0 0 0 0.611765 0 0 0 1 0"/>
<feBlend mode="normal" in2="BackgroundImageFix" result="effect1_dropShadow_11_175"/>
<feColorMatrix in="SourceAlpha" type="matrix" values="0 0 0 0 0 0 0 0 0 0 0 0 0 0 0 0 0 0 127 0" result="hardAlpha"/>
<feOffset/>
<feGaussianBlur stdDeviation="2.84289"/>
<feColorMatrix type="matrix" values="0 0 0 0 0.992157 0 0 0 0 0.654902 0 0 0 0 0.611765 0 0 0 1 0"/>
<feBlend mode="normal" in2="effect1_dropShadow_11_175" result="effect2_dropShadow_11_175"/>
<feColorMatrix in="SourceAlpha" type="matrix" values="0 0 0 0 0 0 0 0 0 0 0 0 0 0 0 0 0 0 127 0" result="hardAlpha"/>
<feOffset/>
<feGaussianBlur stdDeviation="9.95013"/>
<feColorMatrix type="matrix" values="0 0 0 0 0.992157 0 0 0 0 0.654902 0 0 0 0 0.611765 0 0 0 1 0"/>
<feBlend mode="normal" in2="effect2_dropShadow_11_175" result="effect3_dropShadow_11_175"/>
<feColorMatrix in="SourceAlpha" type="matrix" values="0 0 0 0 0 0 0 0 0 0 0 0 0 0 0 0 0 0 127 0" result="hardAlpha"/>
<feOffset/>
<feGaussianBlur stdDeviation="19.9003"/>
<feColorMatrix type="matrix" values="0 0 0 0 0.992157 0 0 0 0 0.654902 0 0 0 0 0.611765 0 0 0 1 0"/>
<feBlend mode="normal" in2="effect3_dropShadow_11_175" result="effect4_dropShadow_11_175"/>
<feColorMatrix in="SourceAlpha" type="matrix" values="0 0 0 0 0 0 0 0 0 0 0 0 0 0 0 0 0 0 127 0" result="hardAlpha"/>
<feOffset/>
<feGaussianBlur stdDeviation="34.1147"/>
<feColorMatrix type="matrix" values="0 0 0 0 0.992157 0 0 0 0 0.654902 0 0 0 0 0.611765 0 0 0 1 0"/>
<feBlend mode="normal" in2="effect4_dropShadow_11_175" result="effect5_dropShadow_11_175"/>
<feColorMatrix in="SourceAlpha" type="matrix" values="0 0 0 0 0 0 0 0 0 0 0 0 0 0 0 0 0 0 127 0" result="hardAlpha"/>
<feOffset/>
<feGaussianBlur stdDeviation="59.7008"/>
<feColorMatrix type="matrix" values="0 0 0 0 0.992157 0 0 0 0 0.654902 0 0 0 0 0.611765 0 0 0 1 0"/>
<feBlend mode="normal" in2="effect5_dropShadow_11_175" result="effect6_dropShadow_11_175"/>
<feBlend mode="normal" in="SourceGraphic" in2="effect6_dropShadow_11_175" result="shape"/>
</filter>
</defs>
</svg>
