<svg width="700" height="635" viewBox="0 0 700 635" fill="none" xmlns="http://www.w3.org/2000/svg">
<g filter="url(#filter0_dddddd_7_88)">
<path fill-rule="evenodd" clip-rule="evenodd" d="M580.278 313.816V313.816L582.134 317.645L583.794 321.523L585.257 325.444L586.522 329.401L587.587 333.386L588.455 337.393L589.126 341.415L589.605 345.447L589.895 349.48L590 353.511L589.927 357.533L589.681 361.542L589.271 365.532L588.703 369.5L587.988 373.443L587.132 377.357L586.146 381.241L585.04 385.091L583.821 388.909L582.5 392.691L581.086 396.439L579.586 400.151L578.009 403.829L576.362 407.472L574.65 411.081L572.879 414.657L571.052 418.2L569.174 421.709L567.244 425.185L565.266 428.627L563.24 432.035L561.168 435.409L559.052 438.748L556.89 442.052L554.685 445.32L552.435 448.551L550.141 451.744L547.803 454.898L545.419 458.012L542.99 461.083L540.513 464.11L537.988 467.091L535.414 470.023L532.789 472.904L530.112 475.731L527.382 478.5L524.598 481.21L521.759 483.856L518.863 486.435L515.91 488.944L512.899 491.378L509.829 493.734L506.701 496.008L503.513 498.196L500.268 500.295L496.964 502.301L493.602 504.209L490.184 506.016L486.712 507.72L483.185 509.315L479.608 510.801L475.981 512.173L472.308 513.429L468.592 514.567L464.835 515.585L461.041 516.482L457.215 517.257L453.36 517.909L449.48 518.438L445.58 518.845L441.664 519.131L437.738 519.296L433.805 519.343L429.871 519.274L425.941 519.091L422.019 518.798L418.11 518.398L414.219 517.895L410.349 517.293L406.507 516.597L402.695 515.812L398.919 514.944L395.181 513.998L391.485 512.98L387.834 511.897L384.233 510.756L380.684 509.567L377.19 508.336L373.752 507.073L370.374 505.789L367.057 504.492L363.802 503.192L360.61 501.902L357.48 500.63L354.413 499.388L351.407 498.187L348.461 497.038L345.573 495.952L342.74 494.94L339.96 494.013L337.227 493.183L334.539 492.459L331.889 491.851L329.272 491.367L326.682 491.014L324.113 490.798L321.557 490.724L319.007 490.795L316.456 491.012L313.897 491.377L311.323 491.888L308.725 492.543L306.097 493.337L303.432 494.265L300.723 495.321L297.965 496.495L295.153 497.779L292.281 499.162L289.346 500.632L286.345 502.175L283.274 503.779L280.133 505.429L276.921 507.108L273.638 508.802L270.286 510.493L266.868 512.164L263.385 513.799L259.844 515.381L256.249 516.892L252.607 518.315L248.925 519.635L245.211 520.834L241.474 521.899L237.723 522.813L233.97 523.565L230.223 524.141L226.495 524.53L222.797 524.723L219.141 524.71L215.538 524.484L212 524.039L208.538 523.372L205.164 522.48L201.889 521.362L198.722 520.019L195.674 518.452L192.752 516.666L189.966 514.665L187.322 512.457L184.826 510.049L182.482 507.451L180.296 504.673L178.268 501.728L176.4 498.628L174.692 495.386L173.141 492.017L171.746 488.535L170.504 484.954L169.41 481.287L168.461 477.548L167.651 473.749L166.976 469.903L166.429 466.021L166.005 462.115L165.697 458.195L165.498 454.271L165.401 450.353L165.399 446.45L165.484 442.57L165.651 438.72L165.891 434.905L166.199 431.132L166.568 427.406L166.994 423.729L167.469 420.105L167.989 416.538L168.547 413.032L169.136 409.587L169.749 406.209L170.38 402.898L171.022 399.656L171.666 396.485L172.307 393.387L172.937 390.362L173.548 387.411L174.134 384.533L174.687 381.729L175.201 378.997L175.668 376.337L176.083 373.746L176.439 371.223L176.729 368.765L176.949 366.37L177.094 364.035L177.158 361.755L177.138 359.527L177.029 357.348L176.829 355.212L176.535 353.114L176.145 351.051L175.658 349.016L175.074 347.005L174.391 345.013L173.612 343.033L172.736 341.06L171.767 339.09L170.706 337.116L169.555 335.133L168.32 333.137L167.003 331.123L165.609 329.084L164.143 327.018L162.61 324.92L161.014 322.786L159.363 320.612L157.661 318.394L155.915 316.129L154.13 313.816L152.314 311.45L150.473 309.03L148.612 306.555L146.74 304.022L144.861 301.43L142.982 298.779L141.11 296.067L139.25 293.295L137.408 290.462L135.59 287.569L133.801 284.616L132.046 281.604L130.331 278.533L128.659 275.404L127.035 272.22L125.462 268.98L123.945 265.686L122.485 262.34L121.086 258.943L119.752 255.498L118.486 252.005L117.29 248.467L116.169 244.887L115.125 241.266L114.163 237.609L113.288 233.917L112.504 230.195L111.817 226.448L111.232 222.68L110.754 218.896L110.388 215.101L110.138 211.3L110.008 207.498L110 203.701L110.117 199.915L110.362 196.144L110.737 192.394L111.242 188.67L111.88 184.978L112.649 181.323L113.552 177.71L114.588 174.145L115.756 170.633L117.056 167.179L118.487 163.788L120.047 160.465L121.734 157.214L123.548 154.04L125.485 150.948L127.543 147.942L129.72 145.027L132.013 142.206L134.419 139.483L136.934 136.862L139.555 134.346L142.279 131.94L145.102 129.647L148.02 127.469L151.028 125.409L154.124 123.471L157.302 121.657L160.558 119.968L163.888 118.408L167.286 116.977L170.748 115.678L174.27 114.512L177.846 113.479L181.47 112.58L185.138 111.816L188.845 111.187L192.585 110.692L196.352 110.329L200.142 110.099L203.948 110L207.766 110.029L211.59 110.184L215.414 110.463L219.233 110.862L223.042 111.377L226.836 112.004L230.61 112.738L234.358 113.575L238.076 114.509L241.76 115.533L245.405 116.641L249.006 117.824L252.56 119.074L256.062 120.382L259.51 121.737L262.899 123.128L266.228 124.545L269.495 125.975L272.696 127.406L275.833 128.825L278.905 130.221L281.911 131.58L284.853 132.89L287.733 134.138L290.553 135.312L293.316 136.401L296.026 137.393L298.688 138.277L301.307 139.046L303.888 139.689L306.437 140.199L308.962 140.572L311.468 140.801L313.964 140.884L316.456 140.818L318.953 140.604L321.46 140.241L323.987 139.733L326.54 139.084L329.125 138.297L331.75 137.382L334.42 136.345L337.141 135.195L339.917 133.945L342.753 132.604L345.652 131.187L348.616 129.706L351.647 128.177L354.746 126.615L357.912 125.035L361.144 123.454L364.439 121.89L367.796 120.358L371.208 118.876L374.671 117.46L378.178 116.129L381.723 114.897L385.298 113.782L388.893 112.797L392.499 111.958L396.107 111.278L399.705 110.77L403.283 110.444L406.829 110.31L410.331 110.378L413.779 110.654L417.161 111.143L420.465 111.851L423.68 112.779L426.795 113.929L429.801 115.3L432.689 116.889L435.448 118.693L438.072 120.707L440.553 122.924L442.887 125.335L445.067 127.932L447.091 130.704L448.956 133.639L450.662 136.724L452.208 139.947L453.598 143.291L454.833 146.743L455.921 150.286L456.867 153.902L457.682 157.574L458.375 161.284L458.96 165.014L459.448 168.748L459.857 172.467L460.199 176.157L460.493 179.801L460.755 183.386L461.002 186.899L461.25 190.33L461.517 193.67L461.82 196.91L462.172 200.045L462.588 203.072L463.082 205.989L463.667 208.794L464.352 211.488L465.151 214.073L466.073 216.551L467.127 218.926L468.322 221.203L469.663 223.388L471.158 225.487L472.809 227.508L474.621 229.458L476.595 231.347L478.732 233.184L481.03 234.978L483.487 236.741L486.099 238.481L488.862 240.21L491.768 241.938L494.811 243.675L497.982 245.432L501.271 247.218L504.667 249.043L508.158 250.916L511.733 252.846L515.376 254.841L519.075 256.908L522.815 259.053L526.581 261.283L530.358 263.602L534.129 266.016L537.88 268.526L541.595 271.137L545.258 273.849L548.854 276.664L552.369 279.581L555.789 282.599L559.099 285.717L562.287 288.933L565.34 292.242L568.248 295.641L570.999 299.127L573.586 302.692L575.999 306.333L578.232 310.043L580.278 313.816" fill="#99D6EB"/>
</g>
<defs>
<filter id="filter0_dddddd_7_88" x="0.141754" y="0.141754" width="699.716" height="634.439" filterUnits="userSpaceOnUse" color-interpolation-filters="sRGB">
<feFlood flood-opacity="0" result="BackgroundImageFix"/>
<feColorMatrix in="SourceAlpha" type="matrix" values="0 0 0 0 0 0 0 0 0 0 0 0 0 0 0 0 0 0 127 0" result="hardAlpha"/>
<feOffset/>
<feGaussianBlur stdDeviation="1.30784"/>
<feColorMatrix type="matrix" values="0 0 0 0 0.6 0 0 0 0 0.839216 0 0 0 0 0.921569 0 0 0 1 0"/>
<feBlend mode="normal" in2="BackgroundImageFix" result="effect1_dropShadow_7_88"/>
<feColorMatrix in="SourceAlpha" type="matrix" values="0 0 0 0 0 0 0 0 0 0 0 0 0 0 0 0 0 0 127 0" result="hardAlpha"/>
<feOffset/>
<feGaussianBlur stdDeviation="2.61567"/>
<feColorMatrix type="matrix" values="0 0 0 0 0.6 0 0 0 0 0.839216 0 0 0 0 0.921569 0 0 0 1 0"/>
<feBlend mode="normal" in2="effect1_dropShadow_7_88" result="effect2_dropShadow_7_88"/>
<feColorMatrix in="SourceAlpha" type="matrix" values="0 0 0 0 0 0 0 0 0 0 0 0 0 0 0 0 0 0 127 0" result="hardAlpha"/>
<feOffset/>
<feGaussianBlur stdDeviation="9.15485"/>
<feColorMatrix type="matrix" values="0 0 0 0 0.6 0 0 0 0 0.839216 0 0 0 0 0.921569 0 0 0 1 0"/>
<feBlend mode="normal" in2="effect2_dropShadow_7_88" result="effect3_dropShadow_7_88"/>
<feColorMatrix in="SourceAlpha" type="matrix" values="0 0 0 0 0 0 0 0 0 0 0 0 0 0 0 0 0 0 127 0" result="hardAlpha"/>
<feOffset/>
<feGaussianBlur stdDeviation="18.3097"/>
<feColorMatrix type="matrix" values="0 0 0 0 0.6 0 0 0 0 0.839216 0 0 0 0 0.921569 0 0 0 1 0"/>
<feBlend mode="normal" in2="effect3_dropShadow_7_88" result="effect4_dropShadow_7_88"/>
<feColorMatrix in="SourceAlpha" type="matrix" values="0 0 0 0 0 0 0 0 0 0 0 0 0 0 0 0 0 0 127 0" result="hardAlpha"/>
<feOffset/>
<feGaussianBlur stdDeviation="31.3881"/>
<feColorMatrix type="matrix" values="0 0 0 0 0.6 0 0 0 0 0.839216 0 0 0 0 0.921569 0 0 0 1 0"/>
<feBlend mode="normal" in2="effect4_dropShadow_7_88" result="effect5_dropShadow_7_88"/>
<feColorMatrix in="SourceAlpha" type="matrix" values="0 0 0 0 0 0 0 0 0 0 0 0 0 0 0 0 0 0 127 0" result="hardAlpha"/>
<feOffset/>
<feGaussianBlur stdDeviation="54.9291"/>
<feColorMatrix type="matrix" values="0 0 0 0 0.6 0 0 0 0 0.839216 0 0 0 0 0.921569 0 0 0 1 0"/>
<feBlend mode="normal" in2="effect5_dropShadow_7_88" result="effect6_dropShadow_7_88"/>
<feBlend mode="normal" in="SourceGraphic" in2="effect6_dropShadow_7_88" result="shape"/>
</filter>
</defs>
</svg>
