<svg width="720" height="653" viewBox="0 0 720 653" fill="none" xmlns="http://www.w3.org/2000/svg">
<g filter="url(#filter0_dddddd_11_358)">
<path fill-rule="evenodd" clip-rule="evenodd" d="M599.873 322.831V322.831L601.806 326.819L603.536 330.859L605.06 334.944L606.377 339.065L607.487 343.217L608.39 347.391L609.09 351.581L609.589 355.78L609.89 359.982L610 364.18L609.924 368.37L609.668 372.545L609.241 376.702L608.649 380.836L607.904 384.943L607.013 389.02L605.986 393.065L604.833 397.077L603.564 401.053L602.188 404.993L600.715 408.896L599.152 412.764L597.51 416.595L595.793 420.39L594.01 424.149L592.165 427.874L590.263 431.564L588.306 435.22L586.296 438.841L584.235 442.426L582.125 445.976L579.967 449.491L577.762 452.969L575.511 456.41L573.213 459.814L570.87 463.18L568.481 466.506L566.045 469.792L563.562 473.035L561.031 476.234L558.451 479.388L555.821 482.493L553.139 485.547L550.405 488.548L547.617 491.492L544.773 494.378L541.873 497.2L538.915 499.956L535.899 502.643L532.823 505.256L529.686 507.791L526.488 510.246L523.23 512.615L519.91 514.894L516.529 517.08L513.087 519.169L509.586 521.157L506.025 523.04L502.408 524.814L498.735 526.476L495.008 528.024L491.23 529.453L487.404 530.761L483.533 531.946L479.619 533.007L475.668 533.942L471.682 534.749L467.666 535.428L463.625 535.98L459.562 536.404L455.483 536.701L451.393 536.873L447.297 536.922L443.199 536.85L439.105 536.66L435.02 536.354L430.948 535.937L426.894 535.413L422.864 534.786L418.861 534.062L414.891 533.244L410.957 532.339L407.063 531.354L403.213 530.294L399.411 529.166L395.66 527.978L391.962 526.738L388.322 525.456L384.742 524.141L381.223 522.803L377.768 521.452L374.377 520.098L371.052 518.754L367.792 517.429L364.596 516.135L361.465 514.884L358.397 513.687L355.388 512.556L352.438 511.502L349.541 510.536L346.695 509.671L343.894 508.917L341.134 508.284L338.408 507.78L335.71 507.412L333.034 507.187L330.371 507.11L327.716 507.184L325.059 507.411L322.393 507.791L319.711 508.323L317.005 509.005L314.267 509.832L311.491 510.799L308.67 511.899L305.797 513.122L302.868 514.46L299.876 515.9L296.819 517.431L293.692 519.039L290.494 520.71L287.222 522.428L283.876 524.177L280.457 525.941L276.965 527.703L273.404 529.444L269.776 531.147L266.088 532.795L262.343 534.369L258.549 535.851L254.714 537.226L250.845 538.475L246.952 539.584L243.045 540.537L239.135 541.32L235.232 541.92L231.349 542.326L227.497 542.526L223.688 542.512L219.935 542.277L216.25 541.814L212.644 541.119L209.129 540.19L205.718 539.025L202.419 537.626L199.243 535.994L196.2 534.133L193.298 532.049L190.543 529.749L187.943 527.241L185.502 524.534L183.225 521.641L181.112 518.573L179.167 515.344L177.387 511.967L175.772 508.457L174.319 504.83L173.025 501.1L171.885 497.28L170.896 493.385L170.053 489.428L169.35 485.422L168.78 481.378L168.338 477.309L168.017 473.226L167.81 469.139L167.709 465.058L167.707 460.992L167.796 456.95L167.969 452.939L168.22 448.966L168.54 445.036L168.925 441.154L169.368 437.324L169.864 433.549L170.405 429.834L170.986 426.181L171.6 422.593L172.239 419.074L172.896 415.625L173.564 412.248L174.236 408.945L174.904 405.718L175.559 402.567L176.196 399.493L176.806 396.495L177.383 393.574L177.918 390.728L178.405 387.957L178.836 385.258L179.207 382.63L179.51 380.07L179.739 377.575L179.889 375.142L179.956 372.768L179.935 370.447L179.822 368.177L179.613 365.952L179.307 363.767L178.901 361.618L178.394 359.498L177.785 357.403L177.074 355.328L176.262 353.265L175.35 351.21L174.34 349.158L173.235 347.102L172.037 345.037L170.75 342.958L169.378 340.859L167.926 338.736L166.399 336.584L164.802 334.398L163.14 332.175L161.42 329.91L159.647 327.6L157.828 325.241L155.969 322.831L154.077 320.367L152.159 317.846L150.221 315.268L148.271 312.629L146.313 309.929L144.356 307.167L142.406 304.343L140.468 301.455L138.55 298.504L136.656 295.491L134.792 292.415L132.965 289.277L131.178 286.078L129.437 282.819L127.745 279.502L126.107 276.127L124.526 272.696L123.005 269.211L121.548 265.672L120.158 262.083L118.839 258.445L117.594 254.76L116.426 251.03L115.338 247.259L114.337 243.449L113.425 239.603L112.608 235.727L111.893 231.823L111.283 227.898L110.786 223.956L110.405 220.003L110.144 216.044L110.008 212.084L110 208.129L110.122 204.184L110.378 200.256L110.768 196.35L111.294 192.471L111.958 188.625L112.76 184.817L113.7 181.054L114.779 177.341L115.996 173.683L117.35 170.085L118.84 166.552L120.465 163.09L122.223 159.704L124.112 156.398L126.13 153.177L128.274 150.046L130.542 147.009L132.93 144.07L135.436 141.234L138.056 138.504L140.786 135.884L143.624 133.378L146.564 130.989L149.604 128.72L152.738 126.574L155.962 124.555L159.273 122.665L162.665 120.906L166.133 119.281L169.673 117.791L173.28 116.438L176.948 115.223L180.673 114.147L184.448 113.211L188.269 112.415L192.13 111.759L196.026 111.243L199.95 110.866L203.898 110.627L207.863 110.523L211.84 110.553L215.823 110.715L219.806 111.005L223.784 111.42L227.752 111.957L231.704 112.61L235.635 113.375L239.539 114.247L243.413 115.22L247.25 116.286L251.047 117.44L254.798 118.673L258.5 119.975L262.148 121.338L265.739 122.749L269.27 124.198L272.738 125.674L276.14 127.163L279.475 128.654L282.743 130.133L285.942 131.586L289.074 133.002L292.138 134.367L295.138 135.667L298.076 136.89L300.954 138.024L303.777 139.057L306.55 139.979L309.278 140.779L311.967 141.448L314.622 141.98L317.252 142.368L319.863 142.607L322.463 142.694L325.059 142.625L327.659 142.402L330.271 142.024L332.903 141.495L335.562 140.818L338.255 139.999L340.99 139.046L343.771 137.965L346.605 136.768L349.497 135.465L352.451 134.069L355.471 132.593L358.558 131.05L361.716 129.458L364.943 127.83L368.241 126.184L371.608 124.538L375.041 122.908L378.537 121.312L382.091 119.768L385.699 118.294L389.352 116.907L393.045 115.624L396.768 114.462L400.513 113.437L404.27 112.563L408.028 111.855L411.776 111.325L415.503 110.985L419.197 110.846L422.845 110.916L426.437 111.204L429.959 111.714L433.401 112.451L436.75 113.418L439.995 114.616L443.127 116.044L446.134 117.699L449.008 119.578L451.742 121.676L454.327 123.985L456.757 126.497L459.028 129.202L461.136 132.09L463.079 135.147L464.856 138.361L466.467 141.717L467.914 145.201L469.201 148.797L470.334 152.487L471.32 156.254L472.168 160.079L472.891 163.944L473.5 167.83L474.009 171.719L474.434 175.593L474.791 179.436L475.097 183.232L475.37 186.966L475.627 190.626L475.886 194.2L476.164 197.679L476.479 201.054L476.846 204.32L477.28 207.473L477.794 210.511L478.403 213.433L479.117 216.24L479.949 218.932L480.91 221.514L482.008 223.988L483.252 226.36L484.649 228.636L486.206 230.822L487.926 232.927L489.814 234.958L491.87 236.926L494.096 238.839L496.489 240.709L499.049 242.544L501.77 244.357L504.647 246.158L507.675 247.958L510.845 249.768L514.148 251.598L517.574 253.459L521.111 255.36L524.748 257.311L528.472 259.321L532.267 261.399L536.12 263.552L540.016 265.786L543.939 268.109L547.873 270.525L551.801 273.039L555.708 275.655L559.578 278.374L563.394 281.199L567.14 284.131L570.802 287.17L574.363 290.314L577.811 293.562L581.132 296.911L584.312 300.358L587.341 303.899L590.208 307.53L592.902 311.244L595.416 315.037L597.742 318.901L599.873 322.831" fill="#99D6EB"/>
</g>
<defs>
<filter id="filter0_dddddd_11_358" x="0.141754" y="0.664703" width="719.716" height="651.719" filterUnits="userSpaceOnUse" color-interpolation-filters="sRGB">
<feFlood flood-opacity="0" result="BackgroundImageFix"/>
<feColorMatrix in="SourceAlpha" type="matrix" values="0 0 0 0 0 0 0 0 0 0 0 0 0 0 0 0 0 0 127 0" result="hardAlpha"/>
<feOffset/>
<feGaussianBlur stdDeviation="1.30784"/>
<feColorMatrix type="matrix" values="0 0 0 0 0.6 0 0 0 0 0.839216 0 0 0 0 0.921569 0 0 0 1 0"/>
<feBlend mode="normal" in2="BackgroundImageFix" result="effect1_dropShadow_11_358"/>
<feColorMatrix in="SourceAlpha" type="matrix" values="0 0 0 0 0 0 0 0 0 0 0 0 0 0 0 0 0 0 127 0" result="hardAlpha"/>
<feOffset/>
<feGaussianBlur stdDeviation="2.61567"/>
<feColorMatrix type="matrix" values="0 0 0 0 0.6 0 0 0 0 0.839216 0 0 0 0 0.921569 0 0 0 1 0"/>
<feBlend mode="normal" in2="effect1_dropShadow_11_358" result="effect2_dropShadow_11_358"/>
<feColorMatrix in="SourceAlpha" type="matrix" values="0 0 0 0 0 0 0 0 0 0 0 0 0 0 0 0 0 0 127 0" result="hardAlpha"/>
<feOffset/>
<feGaussianBlur stdDeviation="9.15485"/>
<feColorMatrix type="matrix" values="0 0 0 0 0.6 0 0 0 0 0.839216 0 0 0 0 0.921569 0 0 0 1 0"/>
<feBlend mode="normal" in2="effect2_dropShadow_11_358" result="effect3_dropShadow_11_358"/>
<feColorMatrix in="SourceAlpha" type="matrix" values="0 0 0 0 0 0 0 0 0 0 0 0 0 0 0 0 0 0 127 0" result="hardAlpha"/>
<feOffset/>
<feGaussianBlur stdDeviation="18.3097"/>
<feColorMatrix type="matrix" values="0 0 0 0 0.6 0 0 0 0 0.839216 0 0 0 0 0.921569 0 0 0 1 0"/>
<feBlend mode="normal" in2="effect3_dropShadow_11_358" result="effect4_dropShadow_11_358"/>
<feColorMatrix in="SourceAlpha" type="matrix" values="0 0 0 0 0 0 0 0 0 0 0 0 0 0 0 0 0 0 127 0" result="hardAlpha"/>
<feOffset/>
<feGaussianBlur stdDeviation="31.3881"/>
<feColorMatrix type="matrix" values="0 0 0 0 0.6 0 0 0 0 0.839216 0 0 0 0 0.921569 0 0 0 1 0"/>
<feBlend mode="normal" in2="effect4_dropShadow_11_358" result="effect5_dropShadow_11_358"/>
<feColorMatrix in="SourceAlpha" type="matrix" values="0 0 0 0 0 0 0 0 0 0 0 0 0 0 0 0 0 0 127 0" result="hardAlpha"/>
<feOffset/>
<feGaussianBlur stdDeviation="54.9291"/>
<feColorMatrix type="matrix" values="0 0 0 0 0.6 0 0 0 0 0.839216 0 0 0 0 0.921569 0 0 0 1 0"/>
<feBlend mode="normal" in2="effect5_dropShadow_11_358" result="effect6_dropShadow_11_358"/>
<feBlend mode="normal" in="SourceGraphic" in2="effect6_dropShadow_11_358" result="shape"/>
</filter>
</defs>
</svg>
