<svg width="720" height="652" viewBox="0 0 720 652" fill="none" xmlns="http://www.w3.org/2000/svg">
<g filter="url(#filter0_dddddd_11_220)">
<path fill-rule="evenodd" clip-rule="evenodd" d="M599.873 322.308V322.308L601.806 326.296L603.536 330.336L605.06 334.421L606.377 338.542L607.487 342.694L608.39 346.868L609.09 351.058L609.589 355.257L609.89 359.459L610 363.657L609.924 367.847L609.668 372.023L609.241 376.179L608.649 380.313L607.904 384.42L607.013 388.497L605.986 392.542L604.833 396.554L603.564 400.53L602.188 404.47L600.715 408.373L599.152 412.241L597.51 416.072L595.793 419.867L594.01 423.626L592.165 427.351L590.263 431.041L588.306 434.697L586.296 438.318L584.235 441.903L582.125 445.453L579.967 448.968L577.762 452.446L575.511 455.887L573.213 459.291L570.87 462.657L568.481 465.983L566.045 469.269L563.562 472.512L561.031 475.711L558.451 478.865L555.821 481.97L553.139 485.024L550.405 488.025L547.617 490.969L544.773 493.855L541.873 496.677L538.915 499.433L535.899 502.12L532.823 504.733L529.686 507.268L526.488 509.723L523.23 512.092L519.91 514.371L516.529 516.557L513.087 518.646L509.586 520.634L506.025 522.517L502.408 524.291L498.735 525.954L495.008 527.501L491.23 528.93L487.404 530.238L483.533 531.424L479.619 532.484L475.668 533.419L471.682 534.226L467.666 534.905L463.625 535.457L459.562 535.881L455.483 536.178L451.393 536.35L447.297 536.399L443.199 536.327L439.105 536.137L435.02 535.831L430.948 535.414L426.894 534.89L422.864 534.263L418.861 533.539L414.891 532.721L410.957 531.817L407.063 530.831L403.213 529.771L399.411 528.643L395.66 527.455L391.962 526.215L388.322 524.933L384.742 523.618L381.223 522.28L377.768 520.929L374.377 519.575L371.052 518.231L367.792 516.906L364.596 515.612L361.465 514.361L358.397 513.164L355.388 512.033L352.438 510.979L349.541 510.014L346.695 509.149L343.894 508.394L341.134 507.761L338.408 507.257L335.71 506.889L333.034 506.664L330.371 506.587L327.716 506.661L325.059 506.888L322.393 507.268L319.711 507.8L317.005 508.482L314.267 509.309L311.491 510.276L308.67 511.376L305.797 512.599L302.868 513.937L299.876 515.377L296.819 516.908L293.692 518.516L290.494 520.187L287.222 521.905L283.876 523.654L280.457 525.418L276.965 527.18L273.404 528.921L269.776 530.624L266.088 532.272L262.343 533.846L258.549 535.328L254.714 536.703L250.845 537.952L246.952 539.061L243.045 540.014L239.135 540.797L235.232 541.397L231.349 541.803L227.497 542.003L223.688 541.989L219.935 541.754L216.25 541.291L212.644 540.596L209.129 539.667L205.718 538.502L202.419 537.103L199.243 535.471L196.2 533.61L193.298 531.526L190.543 529.226L187.943 526.718L185.502 524.011L183.225 521.118L181.112 518.05L179.167 514.821L177.387 511.444L175.772 507.934L174.319 504.307L173.025 500.577L171.885 496.757L170.896 492.862L170.053 488.905L169.35 484.899L168.78 480.855L168.338 476.786L168.017 472.703L167.81 468.616L167.709 464.535L167.707 460.469L167.796 456.427L167.969 452.416L168.22 448.443L168.54 444.513L168.925 440.631L169.368 436.801L169.864 433.026L170.405 429.311L170.986 425.658L171.6 422.07L172.239 418.551L172.896 415.102L173.564 411.725L174.236 408.422L174.904 405.195L175.559 402.044L176.196 398.97L176.806 395.972L177.383 393.051L177.918 390.205L178.405 387.434L178.836 384.735L179.207 382.107L179.51 379.547L179.739 377.052L179.889 374.619L179.956 372.245L179.935 369.924L179.822 367.654L179.613 365.429L179.307 363.244L178.901 361.095L178.394 358.975L177.785 356.881L177.074 354.805L176.262 352.742L175.35 350.688L174.34 348.635L173.235 346.579L172.037 344.514L170.75 342.435L169.378 340.336L167.926 338.213L166.399 336.061L164.802 333.875L163.14 331.652L161.42 329.387L159.647 327.077L157.828 324.718L155.969 322.308L154.077 319.844L152.159 317.323L150.221 314.745L148.271 312.106L146.313 309.406L144.356 306.644L142.406 303.82L140.468 300.932L138.55 297.981L136.656 294.968L134.792 291.892L132.965 288.754L131.178 285.555L129.437 282.296L127.745 278.979L126.107 275.604L124.526 272.173L123.005 268.688L121.548 265.149L120.158 261.56L118.839 257.922L117.594 254.237L116.426 250.507L115.338 246.736L114.337 242.926L113.425 239.08L112.608 235.204L111.893 231.3L111.283 227.375L110.786 223.433L110.405 219.48L110.144 215.521L110.008 211.561L110 207.606L110.122 203.661L110.378 199.733L110.768 195.827L111.294 191.948L111.958 188.102L112.76 184.295L113.7 180.531L114.779 176.818L115.996 173.16L117.35 169.562L118.84 166.029L120.465 162.567L122.223 159.181L124.112 155.875L126.13 152.655L128.274 149.523L130.542 146.486L132.93 143.547L135.436 140.711L138.056 137.981L140.786 135.361L143.624 132.855L146.564 130.466L149.604 128.197L152.738 126.052L155.962 124.032L159.273 122.142L162.665 120.383L166.133 118.758L169.673 117.268L173.28 115.915L176.948 114.7L180.673 113.624L184.448 112.688L188.269 111.892L192.13 111.236L196.026 110.72L199.95 110.343L203.898 110.104L207.863 110L211.84 110.03L215.823 110.192L219.806 110.482L223.784 110.897L227.752 111.434L231.704 112.087L235.635 112.852L239.539 113.724L243.413 114.697L247.25 115.764L251.047 116.917L254.798 118.15L258.5 119.453L262.148 120.815L265.739 122.226L269.27 123.675L272.738 125.151L276.14 126.64L279.475 128.131L282.743 129.61L285.942 131.064L289.074 132.479L292.138 133.844L295.138 135.144L298.076 136.367L300.954 137.501L303.777 138.534L306.55 139.456L309.278 140.256L311.967 140.926L314.622 141.458L317.252 141.845L319.863 142.084L322.463 142.171L325.059 142.102L327.659 141.879L330.271 141.501L332.903 140.972L335.562 140.295L338.255 139.477L340.99 138.523L343.771 137.442L346.605 136.245L349.497 134.942L352.451 133.546L355.471 132.07L358.558 130.528L361.716 128.935L364.943 127.307L368.241 125.661L371.608 124.015L375.041 122.385L378.537 120.789L382.091 119.245L385.699 117.771L389.352 116.384L393.045 115.102L396.768 113.94L400.513 112.914L404.27 112.04L408.028 111.332L411.776 110.802L415.503 110.462L419.197 110.323L422.845 110.393L426.437 110.681L429.959 111.191L433.401 111.928L436.75 112.895L439.995 114.093L443.127 115.521L446.134 117.176L449.008 119.055L451.742 121.153L454.327 123.462L456.757 125.974L459.028 128.679L461.136 131.567L463.079 134.624L464.856 137.838L466.467 141.194L467.914 144.678L469.201 148.274L470.334 151.964L471.32 155.731L472.168 159.556L472.891 163.421L473.5 167.307L474.009 171.196L474.434 175.07L474.791 178.913L475.097 182.709L475.37 186.443L475.627 190.103L475.886 193.677L476.164 197.156L476.479 200.531L476.846 203.797L477.28 206.95L477.794 209.988L478.403 212.91L479.117 215.717L479.949 218.409L480.91 220.991L482.008 223.465L483.252 225.837L484.649 228.113L486.206 230.299L487.926 232.404L489.814 234.435L491.87 236.403L494.096 238.316L496.489 240.186L499.049 242.022L501.77 243.834L504.647 245.635L507.675 247.435L510.845 249.245L514.148 251.075L517.574 252.936L521.111 254.837L524.748 256.788L528.472 258.798L532.267 260.876L536.12 263.029L540.016 265.263L543.939 267.586L547.873 270.002L551.801 272.516L555.708 275.132L559.578 277.851L563.394 280.676L567.14 283.608L570.802 286.647L574.363 289.791L577.811 293.039L581.132 296.388L584.312 299.835L587.341 303.376L590.208 307.007L592.902 310.721L595.416 314.514L597.742 318.378L599.873 322.308" fill="#99D6EB"/>
</g>
<defs>
<filter id="filter0_dddddd_11_220" x="0.141754" y="0.141754" width="719.716" height="651.719" filterUnits="userSpaceOnUse" color-interpolation-filters="sRGB">
<feFlood flood-opacity="0" result="BackgroundImageFix"/>
<feColorMatrix in="SourceAlpha" type="matrix" values="0 0 0 0 0 0 0 0 0 0 0 0 0 0 0 0 0 0 127 0" result="hardAlpha"/>
<feOffset/>
<feGaussianBlur stdDeviation="1.30784"/>
<feColorMatrix type="matrix" values="0 0 0 0 0.6 0 0 0 0 0.839216 0 0 0 0 0.921569 0 0 0 1 0"/>
<feBlend mode="normal" in2="BackgroundImageFix" result="effect1_dropShadow_11_220"/>
<feColorMatrix in="SourceAlpha" type="matrix" values="0 0 0 0 0 0 0 0 0 0 0 0 0 0 0 0 0 0 127 0" result="hardAlpha"/>
<feOffset/>
<feGaussianBlur stdDeviation="2.61567"/>
<feColorMatrix type="matrix" values="0 0 0 0 0.6 0 0 0 0 0.839216 0 0 0 0 0.921569 0 0 0 1 0"/>
<feBlend mode="normal" in2="effect1_dropShadow_11_220" result="effect2_dropShadow_11_220"/>
<feColorMatrix in="SourceAlpha" type="matrix" values="0 0 0 0 0 0 0 0 0 0 0 0 0 0 0 0 0 0 127 0" result="hardAlpha"/>
<feOffset/>
<feGaussianBlur stdDeviation="9.15485"/>
<feColorMatrix type="matrix" values="0 0 0 0 0.6 0 0 0 0 0.839216 0 0 0 0 0.921569 0 0 0 1 0"/>
<feBlend mode="normal" in2="effect2_dropShadow_11_220" result="effect3_dropShadow_11_220"/>
<feColorMatrix in="SourceAlpha" type="matrix" values="0 0 0 0 0 0 0 0 0 0 0 0 0 0 0 0 0 0 127 0" result="hardAlpha"/>
<feOffset/>
<feGaussianBlur stdDeviation="18.3097"/>
<feColorMatrix type="matrix" values="0 0 0 0 0.6 0 0 0 0 0.839216 0 0 0 0 0.921569 0 0 0 1 0"/>
<feBlend mode="normal" in2="effect3_dropShadow_11_220" result="effect4_dropShadow_11_220"/>
<feColorMatrix in="SourceAlpha" type="matrix" values="0 0 0 0 0 0 0 0 0 0 0 0 0 0 0 0 0 0 127 0" result="hardAlpha"/>
<feOffset/>
<feGaussianBlur stdDeviation="31.3881"/>
<feColorMatrix type="matrix" values="0 0 0 0 0.6 0 0 0 0 0.839216 0 0 0 0 0.921569 0 0 0 1 0"/>
<feBlend mode="normal" in2="effect4_dropShadow_11_220" result="effect5_dropShadow_11_220"/>
<feColorMatrix in="SourceAlpha" type="matrix" values="0 0 0 0 0 0 0 0 0 0 0 0 0 0 0 0 0 0 127 0" result="hardAlpha"/>
<feOffset/>
<feGaussianBlur stdDeviation="54.9291"/>
<feColorMatrix type="matrix" values="0 0 0 0 0.6 0 0 0 0 0.839216 0 0 0 0 0.921569 0 0 0 1 0"/>
<feBlend mode="normal" in2="effect5_dropShadow_11_220" result="effect6_dropShadow_11_220"/>
<feBlend mode="normal" in="SourceGraphic" in2="effect6_dropShadow_11_220" result="shape"/>
</filter>
</defs>
</svg>
