<svg width="432" height="432" viewBox="0 0 432 432" fill="none" xmlns="http://www.w3.org/2000/svg">
<g filter="url(#filter0_dddddd_7_84)">
<path fill-rule="evenodd" clip-rule="evenodd" d="M328.48 245.728V245.728L328.184 246.973L327.871 248.212L327.541 249.444L327.195 250.668L326.833 251.885L326.454 253.094L326.058 254.296L325.646 255.489L325.218 256.673L324.774 257.849L324.313 259.015L323.837 260.172L323.344 261.32L322.837 262.458L322.313 263.586L321.774 264.703L321.22 265.811L320.651 266.907L320.067 267.992L319.469 269.066L318.857 270.129L318.23 271.18L317.59 272.219L316.936 273.246L316.269 274.262L315.589 275.264L314.897 276.255L314.192 277.232L313.476 278.197L312.748 279.149L312.008 280.088L311.258 281.014L310.498 281.927L309.727 282.826L308.947 283.712L308.158 284.585L307.359 285.445L306.553 286.291L305.738 287.124L304.915 287.944L304.085 288.75L303.249 289.543L302.406 290.323L301.557 291.09L300.702 291.844L299.842 292.585L298.977 293.314L298.108 294.029L297.235 294.733L296.359 295.424L295.479 296.103L294.596 296.77L293.71 297.425L292.823 298.069L291.933 298.701L291.042 299.323L290.15 299.934L289.257 300.534L288.364 301.124L287.47 301.703L286.576 302.274L285.683 302.834L284.789 303.386L283.897 303.928L283.006 304.462L282.115 304.988L281.226 305.506L280.339 306.016L279.453 306.518L278.569 307.014L277.687 307.502L276.806 307.984L275.928 308.46L275.052 308.93L274.178 309.395L273.307 309.854L272.438 310.308L271.57 310.757L270.706 311.201L269.843 311.641L268.983 312.077L268.125 312.509L267.268 312.938L266.414 313.363L265.562 313.785L264.712 314.204L263.863 314.62L263.016 315.033L262.17 315.444L261.326 315.852L260.483 316.258L259.641 316.661L258.799 317.062L257.958 317.461L257.117 317.858L256.277 318.252L255.436 318.644L254.595 319.033L253.754 319.42L252.911 319.805L252.068 320.186L251.224 320.565L250.378 320.941L249.531 321.313L248.681 321.682L247.83 322.048L246.977 322.409L246.121 322.766L245.263 323.12L244.402 323.468L243.538 323.812L242.671 324.15L241.801 324.483L240.928 324.81L240.051 325.131L239.171 325.446L238.288 325.755L237.401 326.056L236.51 326.35L235.616 326.637L234.718 326.916L233.816 327.187L232.911 327.449L232.002 327.703L231.089 327.948L230.173 328.184L229.253 328.411L228.33 328.628L227.403 328.835L226.473 329.032L225.54 329.219L224.604 329.395L223.665 329.561L222.722 329.717L221.777 329.861L220.829 329.994L219.879 330.117L218.926 330.228L217.972 330.328L217.014 330.417L216.055 330.494L215.094 330.56L214.132 330.615L213.167 330.659L212.202 330.691L211.235 330.713L210.266 330.723L209.297 330.722L208.327 330.711L207.355 330.688L206.383 330.656L205.411 330.612L204.437 330.558L203.463 330.494L202.489 330.421L201.514 330.337L200.539 330.243L199.563 330.14L198.587 330.028L197.611 329.906L196.634 329.776L195.658 329.636L194.68 329.488L193.703 329.332L192.725 329.167L191.746 328.994L190.768 328.813L189.788 328.625L188.808 328.429L187.828 328.225L186.846 328.014L185.864 327.796L184.881 327.57L183.897 327.338L182.912 327.098L181.926 326.852L180.938 326.599L179.949 326.339L178.959 326.073L177.967 325.8L176.974 325.52L175.979 325.234L174.982 324.941L173.983 324.641L172.982 324.334L171.98 324.02L170.975 323.699L169.969 323.37L168.96 323.034L167.95 322.691L166.938 322.339L165.924 321.979L164.909 321.611L163.892 321.233L162.873 320.847L161.853 320.452L160.833 320.047L159.811 319.633L158.788 319.208L157.765 318.773L156.742 318.327L155.719 317.87L154.695 317.402L153.673 316.922L152.651 316.431L151.631 315.927L150.612 315.411L149.595 314.882L148.58 314.34L147.567 313.784L146.558 313.216L145.552 312.633L144.55 312.037L143.552 311.427L142.559 310.802L141.571 310.163L140.588 309.51L139.611 308.841L138.641 308.158L137.677 307.46L136.721 306.747L135.772 306.019L134.831 305.276L133.899 304.517L132.976 303.744L132.062 302.955L131.157 302.152L130.263 301.333L129.38 300.5L128.507 299.652L127.645 298.789L126.795 297.911L125.957 297.019L125.131 296.113L124.318 295.193L123.517 294.259L122.729 293.311L121.955 292.349L121.194 291.375L120.446 290.387L119.713 289.387L118.993 288.374L118.288 287.348L117.596 286.311L116.92 285.262L116.258 284.201L115.61 283.13L114.977 282.047L114.359 280.954L113.756 279.85L113.167 278.736L112.594 277.612L112.035 276.479L111.491 275.337L110.961 274.185L110.447 273.025L109.947 271.856L109.462 270.679L108.991 269.493L108.535 268.301L108.093 267.1L107.666 265.892L107.253 264.677L106.854 263.456L106.469 262.227L106.098 260.992L105.74 259.751L105.397 258.504L105.067 257.25L104.75 255.991L104.447 254.727L104.157 253.457L103.88 252.181L103.616 250.9L103.365 249.614L103.127 248.324L102.902 247.028L102.689 245.728L102.489 244.422L102.301 243.113L102.126 241.799L101.964 240.48L101.814 239.157L101.676 237.83L101.551 236.499L101.439 235.164L101.34 233.824L101.253 232.481L101.178 231.134L101.117 229.783L101.068 228.429L101.032 227.071L101.01 225.709L101 224.344L101.004 222.976L101.021 221.605L101.051 220.23L101.095 218.853L101.153 217.472L101.225 216.089L101.31 214.704L101.41 213.316L101.524 211.925L101.653 210.532L101.796 209.138L101.954 207.741L102.127 206.343L102.315 204.943L102.518 203.542L102.736 202.139L102.97 200.736L103.22 199.331L103.486 197.927L103.767 196.521L104.065 195.116L104.378 193.71L104.709 192.305L105.055 190.9L105.419 189.496L105.799 188.093L106.196 186.691L106.61 185.29L107.041 183.891L107.489 182.494L107.955 181.099L108.438 179.707L108.938 178.317L109.456 176.93L109.992 175.547L110.545 174.167L111.116 172.791L111.705 171.418L112.312 170.051L112.937 168.687L113.579 167.329L114.24 165.976L114.919 164.629L115.615 163.287L116.33 161.952L117.063 160.622L117.814 159.3L118.583 157.985L119.37 156.677L120.175 155.377L120.998 154.085L121.84 152.801L122.699 151.525L123.576 150.259L124.471 149.002L125.384 147.755L126.315 146.517L127.263 145.29L128.229 144.074L129.213 142.868L130.214 141.674L131.233 140.491L132.269 139.321L133.322 138.163L134.392 137.017L135.479 135.884L136.584 134.765L137.704 133.659L138.842 132.568L139.996 131.491L141.166 130.428L142.353 129.381L143.555 128.349L144.773 127.332L146.007 126.332L147.256 125.348L148.52 124.381L149.799 123.431L151.093 122.497L152.401 121.582L153.723 120.684L155.06 119.803L156.409 118.941L157.772 118.098L159.148 117.272L160.537 116.466L161.938 115.679L163.352 114.91L164.777 114.161L166.214 113.432L167.661 112.722L169.12 112.032L170.589 111.362L172.069 110.712L173.558 110.082L175.057 109.472L176.566 108.883L178.083 108.314L179.609 107.766L181.143 107.239L182.685 106.732L184.235 106.246L185.792 105.782L187.356 105.338L188.927 104.915L190.504 104.514L192.087 104.134L193.676 103.775L195.27 103.438L196.869 103.122L198.473 102.828L200.082 102.556L201.694 102.305L203.311 102.076L204.93 101.868L206.553 101.683L208.179 101.52L209.807 101.379L211.437 101.26L213.069 101.163L214.702 101.088L216.336 101.036L217.972 101.007L219.607 101L221.243 101.016L222.878 101.054L224.513 101.116L226.146 101.201L227.779 101.308L229.409 101.439L231.038 101.594L232.663 101.771L234.286 101.973L235.906 102.198L237.521 102.447L239.133 102.72L240.74 103.017L242.342 103.338L243.938 103.683L245.529 104.052L247.113 104.445L248.691 104.863L250.261 105.304L251.824 105.769L253.378 106.259L254.924 106.772L256.461 107.309L257.989 107.87L259.507 108.455L261.014 109.063L262.511 109.695L263.997 110.35L265.471 111.028L266.934 111.729L268.384 112.453L269.821 113.199L271.245 113.967L272.655 114.758L274.051 115.57L275.433 116.404L276.8 117.259L278.153 118.136L279.489 119.032L280.81 119.949L282.115 120.886L283.404 121.843L284.676 122.819L285.93 123.814L287.168 124.827L288.388 125.858L289.59 126.906L290.775 127.972L291.941 129.054L293.089 130.152L294.219 131.265L295.33 132.394L296.423 133.537L297.497 134.694L298.553 135.865L299.589 137.049L300.607 138.245L301.606 139.453L302.586 140.672L303.547 141.903L304.49 143.143L305.414 144.394L306.319 145.654L307.205 146.923L308.074 148.2L308.923 149.486L309.755 150.778L310.568 152.078L311.364 153.385L312.142 154.697L312.901 156.016L313.644 157.339L314.369 158.668L315.076 160.001L315.767 161.339L316.44 162.68L317.097 164.025L317.737 165.373L318.361 166.725L318.969 168.078L319.56 169.435L320.135 170.793L320.695 172.154L321.239 173.516L321.767 174.879L322.28 176.244L322.778 177.609L323.26 178.976L323.728 180.343L324.18 181.711L324.618 183.079L325.041 184.448L325.449 185.816L325.843 187.185L326.222 188.553L326.586 189.921L326.937 191.288L327.273 192.656L327.594 194.022L327.901 195.388L328.194 196.753L328.473 198.117L328.737 199.48L328.987 200.842L329.223 202.203L329.445 203.562L329.652 204.92L329.844 206.277L330.022 207.633L330.186 208.986L330.335 210.338L330.469 211.689L330.588 213.037L330.692 214.383L330.782 215.728L330.856 217.07L330.915 218.41L330.959 219.747L330.987 221.082L331 222.414L330.997 223.743L330.979 225.069L330.944 226.392L330.894 227.712L330.828 229.028L330.746 230.34L330.647 231.649L330.532 232.953L330.401 234.253L330.254 235.549L330.09 236.84L329.91 238.126L329.713 239.407L329.5 240.683L329.27 241.953L329.023 243.217L328.76 244.476L328.48 245.728" fill="#FFF870"/>
</g>
<defs>
<filter id="filter0_dddddd_7_84" x="0.199997" y="0.199997" width="431.6" height="431.323" filterUnits="userSpaceOnUse" color-interpolation-filters="sRGB">
<feFlood flood-opacity="0" result="BackgroundImageFix"/>
<feColorMatrix in="SourceAlpha" type="matrix" values="0 0 0 0 0 0 0 0 0 0 0 0 0 0 0 0 0 0 127 0" result="hardAlpha"/>
<feOffset/>
<feGaussianBlur stdDeviation="1.2"/>
<feColorMatrix type="matrix" values="0 0 0 0 1 0 0 0 0 0.972549 0 0 0 0 0.439216 0 0 0 1 0"/>
<feBlend mode="normal" in2="BackgroundImageFix" result="effect1_dropShadow_7_84"/>
<feColorMatrix in="SourceAlpha" type="matrix" values="0 0 0 0 0 0 0 0 0 0 0 0 0 0 0 0 0 0 127 0" result="hardAlpha"/>
<feOffset/>
<feGaussianBlur stdDeviation="2.4"/>
<feColorMatrix type="matrix" values="0 0 0 0 1 0 0 0 0 0.972549 0 0 0 0 0.439216 0 0 0 1 0"/>
<feBlend mode="normal" in2="effect1_dropShadow_7_84" result="effect2_dropShadow_7_84"/>
<feColorMatrix in="SourceAlpha" type="matrix" values="0 0 0 0 0 0 0 0 0 0 0 0 0 0 0 0 0 0 127 0" result="hardAlpha"/>
<feOffset/>
<feGaussianBlur stdDeviation="8.4"/>
<feColorMatrix type="matrix" values="0 0 0 0 1 0 0 0 0 0.972549 0 0 0 0 0.439216 0 0 0 1 0"/>
<feBlend mode="normal" in2="effect2_dropShadow_7_84" result="effect3_dropShadow_7_84"/>
<feColorMatrix in="SourceAlpha" type="matrix" values="0 0 0 0 0 0 0 0 0 0 0 0 0 0 0 0 0 0 127 0" result="hardAlpha"/>
<feOffset/>
<feGaussianBlur stdDeviation="16.8"/>
<feColorMatrix type="matrix" values="0 0 0 0 1 0 0 0 0 0.972549 0 0 0 0 0.439216 0 0 0 1 0"/>
<feBlend mode="normal" in2="effect3_dropShadow_7_84" result="effect4_dropShadow_7_84"/>
<feColorMatrix in="SourceAlpha" type="matrix" values="0 0 0 0 0 0 0 0 0 0 0 0 0 0 0 0 0 0 127 0" result="hardAlpha"/>
<feOffset/>
<feGaussianBlur stdDeviation="28.8"/>
<feColorMatrix type="matrix" values="0 0 0 0 1 0 0 0 0 0.972549 0 0 0 0 0.439216 0 0 0 1 0"/>
<feBlend mode="normal" in2="effect4_dropShadow_7_84" result="effect5_dropShadow_7_84"/>
<feColorMatrix in="SourceAlpha" type="matrix" values="0 0 0 0 0 0 0 0 0 0 0 0 0 0 0 0 0 0 127 0" result="hardAlpha"/>
<feOffset/>
<feGaussianBlur stdDeviation="50.4"/>
<feColorMatrix type="matrix" values="0 0 0 0 1 0 0 0 0 0.972549 0 0 0 0 0.439216 0 0 0 1 0"/>
<feBlend mode="normal" in2="effect5_dropShadow_7_84" result="effect6_dropShadow_7_84"/>
<feBlend mode="normal" in="SourceGraphic" in2="effect6_dropShadow_7_84" result="shape"/>
</filter>
</defs>
</svg>
