<svg width="382" height="382" viewBox="0 0 382 382" fill="none" xmlns="http://www.w3.org/2000/svg">
<g filter="url(#filter0_dddddd_11_143)">
<path fill-rule="evenodd" clip-rule="evenodd" d="M279.028 214.265V214.265L278.796 215.24L278.551 216.209L278.293 217.173L278.022 218.132L277.739 219.084L277.442 220.03L277.132 220.97L276.81 221.904L276.475 222.831L276.127 223.751L275.767 224.664L275.394 225.57L275.009 226.468L274.611 227.358L274.202 228.241L273.78 229.116L273.346 229.982L272.901 230.84L272.444 231.689L271.976 232.53L271.496 233.362L271.006 234.184L270.505 234.998L269.993 235.802L269.471 236.596L268.939 237.381L268.397 238.156L267.846 238.921L267.285 239.676L266.715 240.421L266.137 241.156L265.55 241.88L264.955 242.595L264.352 243.299L263.741 243.992L263.123 244.675L262.499 245.348L261.867 246.011L261.229 246.662L260.586 247.304L259.936 247.935L259.282 248.556L258.622 249.166L257.957 249.766L257.289 250.356L256.616 250.936L255.939 251.506L255.259 252.067L254.575 252.617L253.889 253.158L253.201 253.689L252.51 254.211L251.817 254.724L251.122 255.228L250.426 255.723L249.729 256.209L249.031 256.687L248.332 257.157L247.632 257.619L246.933 258.072L246.233 258.518L245.534 258.957L244.835 259.389L244.137 259.813L243.439 260.231L242.742 260.643L242.047 261.048L241.352 261.447L240.659 261.84L239.967 262.228L239.277 262.611L238.588 262.988L237.9 263.36L237.215 263.728L236.531 264.092L235.849 264.451L235.169 264.806L234.49 265.157L233.813 265.505L233.138 265.85L232.465 266.191L231.793 266.529L231.123 266.865L230.455 267.197L229.788 267.527L229.122 267.855L228.458 268.181L227.795 268.504L227.133 268.825L226.473 269.145L225.813 269.462L225.154 269.778L224.495 270.092L223.837 270.404L223.179 270.715L222.521 271.023L221.863 271.33L221.205 271.635L220.546 271.938L219.887 272.238L219.227 272.537L218.566 272.833L217.904 273.127L217.241 273.419L216.577 273.708L215.911 273.994L215.243 274.277L214.573 274.556L213.901 274.833L213.227 275.105L212.551 275.374L211.873 275.639L211.192 275.9L210.509 276.156L209.823 276.407L209.134 276.654L208.443 276.895L207.748 277.131L207.051 277.361L206.352 277.586L205.649 277.804L204.943 278.016L204.235 278.221L203.523 278.42L202.809 278.612L202.092 278.796L201.372 278.974L200.65 279.144L199.924 279.306L199.197 279.46L198.466 279.606L197.733 279.744L196.998 279.874L196.261 279.996L195.521 280.109L194.78 280.213L194.036 280.309L193.29 280.396L192.543 280.474L191.794 280.543L191.043 280.604L190.291 280.656L189.538 280.699L188.783 280.733L188.027 280.758L187.271 280.775L186.513 280.783L185.754 280.783L184.995 280.774L184.235 280.756L183.474 280.73L182.713 280.696L181.951 280.654L181.189 280.604L180.426 280.546L179.663 280.481L178.9 280.408L178.136 280.327L177.373 280.239L176.609 280.144L175.844 280.042L175.08 279.933L174.315 279.817L173.55 279.694L172.785 279.566L172.019 279.43L171.253 279.289L170.486 279.141L169.719 278.988L168.952 278.828L168.184 278.663L167.415 278.492L166.646 278.316L165.876 278.134L165.105 277.947L164.333 277.754L163.56 277.556L162.786 277.353L162.011 277.144L161.235 276.93L160.458 276.712L159.679 276.487L158.899 276.258L158.117 276.023L157.334 275.783L156.549 275.537L155.763 275.286L154.975 275.029L154.186 274.766L153.396 274.497L152.604 274.222L151.81 273.94L151.015 273.652L150.22 273.357L149.422 273.055L148.624 272.745L147.826 272.428L147.026 272.104L146.226 271.772L145.425 271.431L144.624 271.082L143.823 270.725L143.023 270.358L142.222 269.983L141.423 269.598L140.624 269.204L139.827 268.8L139.031 268.386L138.236 267.961L137.444 267.527L136.654 267.082L135.867 266.626L135.083 266.16L134.302 265.682L133.524 265.193L132.751 264.693L131.982 264.181L131.217 263.658L130.458 263.124L129.704 262.577L128.955 262.019L128.213 261.449L127.477 260.868L126.747 260.274L126.024 259.669L125.309 259.052L124.601 258.423L123.902 257.783L123.21 257.13L122.527 256.467L121.853 255.791L121.188 255.104L120.532 254.406L119.885 253.697L119.249 252.977L118.622 252.246L118.005 251.504L117.399 250.752L116.804 249.989L116.219 249.216L115.645 248.433L115.081 247.64L114.529 246.838L113.989 246.026L113.459 245.205L112.941 244.375L112.434 243.536L111.939 242.689L111.455 241.833L110.983 240.969L110.522 240.098L110.073 239.218L109.636 238.331L109.21 237.437L108.796 236.536L108.393 235.628L108.002 234.713L107.622 233.792L107.254 232.864L106.897 231.931L106.551 230.991L106.217 230.046L105.893 229.095L105.581 228.139L105.28 227.178L104.99 226.211L104.71 225.24L104.441 224.264L104.183 223.283L103.935 222.298L103.698 221.308L103.471 220.314L103.254 219.316L103.048 218.313L102.851 217.307L102.665 216.297L102.488 215.283L102.322 214.265L102.165 213.244L102.018 212.219L101.881 211.19L101.754 210.158L101.637 209.123L101.529 208.084L101.432 207.043L101.344 205.998L101.266 204.949L101.198 203.898L101.139 202.844L101.091 201.787L101.053 200.727L101.025 199.664L101.008 198.599L101 197.53L101.003 196.46L101.016 195.386L101.04 194.311L101.074 193.233L101.12 192.152L101.176 191.07L101.243 189.985L101.321 188.899L101.41 187.811L101.511 186.721L101.623 185.629L101.747 184.536L101.882 183.442L102.029 182.347L102.188 181.25L102.359 180.152L102.542 179.054L102.737 177.955L102.945 176.856L103.165 175.756L103.398 174.656L103.644 173.556L103.902 172.456L104.174 171.357L104.458 170.258L104.756 169.16L105.066 168.062L105.39 166.966L105.728 165.871L106.078 164.778L106.443 163.686L106.821 162.597L107.212 161.509L107.618 160.424L108.037 159.341L108.47 158.261L108.917 157.184L109.378 156.11L109.853 155.04L110.342 153.973L110.845 152.91L111.362 151.851L111.893 150.796L112.438 149.746L112.997 148.701L113.571 147.661L114.159 146.626L114.761 145.597L115.377 144.573L116.007 143.556L116.651 142.544L117.309 141.54L117.982 140.542L118.668 139.551L119.369 138.567L120.083 137.591L120.811 136.622L121.554 135.662L122.31 134.71L123.08 133.767L123.863 132.832L124.66 131.906L125.471 130.99L126.295 130.084L127.133 129.187L127.984 128.301L128.848 127.425L129.725 126.559L130.615 125.705L131.519 124.862L132.434 124.031L133.363 123.211L134.304 122.403L135.257 121.608L136.223 120.825L137.2 120.055L138.19 119.298L139.191 118.554L140.203 117.824L141.227 117.107L142.262 116.405L143.308 115.716L144.364 115.041L145.431 114.381L146.507 113.735L147.594 113.104L148.691 112.488L149.797 111.886L150.912 111.3L152.037 110.729L153.17 110.174L154.311 109.634L155.461 109.109L156.619 108.6L157.785 108.107L158.958 107.63L160.138 107.169L161.326 106.724L162.52 106.295L163.721 105.882L164.927 105.486L166.14 105.106L167.359 104.742L168.583 104.395L169.812 104.064L171.047 103.75L172.286 103.453L173.529 103.172L174.777 102.908L176.028 102.661L177.284 102.431L178.542 102.217L179.804 102.021L181.069 101.842L182.337 101.68L183.607 101.535L184.879 101.407L186.153 101.296L187.429 101.203L188.706 101.127L189.984 101.069L191.263 101.029L192.543 101.005L193.823 101L195.103 101.012L196.383 101.043L197.662 101.091L198.941 101.157L200.218 101.241L201.494 101.344L202.769 101.465L204.041 101.604L205.311 101.761L206.578 101.938L207.843 102.133L209.104 102.346L210.362 102.579L211.615 102.83L212.865 103.1L214.11 103.389L215.349 103.696L216.584 104.023L217.813 104.368L219.036 104.732L220.252 105.115L221.462 105.517L222.665 105.938L223.861 106.377L225.049 106.834L226.229 107.31L227.4 107.805L228.563 108.317L229.717 108.848L230.861 109.397L231.996 109.963L233.121 110.547L234.235 111.148L235.339 111.767L236.431 112.403L237.513 113.056L238.583 113.725L239.641 114.41L240.687 115.112L241.721 115.83L242.742 116.563L243.751 117.312L244.746 118.076L245.728 118.854L246.697 119.647L247.651 120.454L248.592 121.274L249.519 122.108L250.432 122.955L251.331 123.814L252.215 124.686L253.085 125.569L253.94 126.464L254.78 127.369L255.606 128.286L256.418 129.212L257.214 130.148L257.996 131.094L258.763 132.048L259.515 133.011L260.253 133.982L260.976 134.961L261.684 135.947L262.378 136.94L263.058 137.939L263.723 138.945L264.374 139.957L265.01 140.974L265.633 141.997L266.241 143.024L266.836 144.056L267.417 145.092L267.984 146.131L268.538 147.175L269.078 148.222L269.606 149.271L270.12 150.324L270.621 151.379L271.109 152.437L271.584 153.496L272.047 154.558L272.497 155.621L272.935 156.685L273.361 157.751L273.774 158.818L274.176 159.886L274.565 160.955L274.943 162.025L275.309 163.095L275.663 164.165L276.005 165.236L276.336 166.307L276.656 167.378L276.964 168.449L277.26 169.52L277.546 170.59L277.82 171.661L278.083 172.73L278.334 173.8L278.575 174.869L278.804 175.937L279.022 177.004L279.229 178.071L279.425 179.137L279.61 180.202L279.783 181.266L279.945 182.329L280.096 183.391L280.235 184.452L280.363 185.511L280.479 186.569L280.584 187.626L280.678 188.681L280.759 189.735L280.829 190.787L280.887 191.837L280.934 192.886L280.968 193.932L280.99 194.977L281 196.019L280.998 197.06L280.983 198.097L280.956 199.133L280.917 200.166L280.865 201.196L280.801 202.223L280.724 203.247L280.634 204.268L280.531 205.285L280.416 206.299L280.288 207.309L280.147 208.316L279.993 209.319L279.826 210.317L279.646 211.311L279.453 212.3L279.247 213.285L279.028 214.265" fill="#FFF870"/>
</g>
<defs>
<filter id="filter0_dddddd_11_143" x="0.199997" y="0.199997" width="381.6" height="381.383" filterUnits="userSpaceOnUse" color-interpolation-filters="sRGB">
<feFlood flood-opacity="0" result="BackgroundImageFix"/>
<feColorMatrix in="SourceAlpha" type="matrix" values="0 0 0 0 0 0 0 0 0 0 0 0 0 0 0 0 0 0 127 0" result="hardAlpha"/>
<feOffset/>
<feGaussianBlur stdDeviation="1.2"/>
<feColorMatrix type="matrix" values="0 0 0 0 1 0 0 0 0 0.972549 0 0 0 0 0.439216 0 0 0 1 0"/>
<feBlend mode="normal" in2="BackgroundImageFix" result="effect1_dropShadow_11_143"/>
<feColorMatrix in="SourceAlpha" type="matrix" values="0 0 0 0 0 0 0 0 0 0 0 0 0 0 0 0 0 0 127 0" result="hardAlpha"/>
<feOffset/>
<feGaussianBlur stdDeviation="2.4"/>
<feColorMatrix type="matrix" values="0 0 0 0 1 0 0 0 0 0.972549 0 0 0 0 0.439216 0 0 0 1 0"/>
<feBlend mode="normal" in2="effect1_dropShadow_11_143" result="effect2_dropShadow_11_143"/>
<feColorMatrix in="SourceAlpha" type="matrix" values="0 0 0 0 0 0 0 0 0 0 0 0 0 0 0 0 0 0 127 0" result="hardAlpha"/>
<feOffset/>
<feGaussianBlur stdDeviation="8.4"/>
<feColorMatrix type="matrix" values="0 0 0 0 1 0 0 0 0 0.972549 0 0 0 0 0.439216 0 0 0 1 0"/>
<feBlend mode="normal" in2="effect2_dropShadow_11_143" result="effect3_dropShadow_11_143"/>
<feColorMatrix in="SourceAlpha" type="matrix" values="0 0 0 0 0 0 0 0 0 0 0 0 0 0 0 0 0 0 127 0" result="hardAlpha"/>
<feOffset/>
<feGaussianBlur stdDeviation="16.8"/>
<feColorMatrix type="matrix" values="0 0 0 0 1 0 0 0 0 0.972549 0 0 0 0 0.439216 0 0 0 1 0"/>
<feBlend mode="normal" in2="effect3_dropShadow_11_143" result="effect4_dropShadow_11_143"/>
<feColorMatrix in="SourceAlpha" type="matrix" values="0 0 0 0 0 0 0 0 0 0 0 0 0 0 0 0 0 0 127 0" result="hardAlpha"/>
<feOffset/>
<feGaussianBlur stdDeviation="28.8"/>
<feColorMatrix type="matrix" values="0 0 0 0 1 0 0 0 0 0.972549 0 0 0 0 0.439216 0 0 0 1 0"/>
<feBlend mode="normal" in2="effect4_dropShadow_11_143" result="effect5_dropShadow_11_143"/>
<feColorMatrix in="SourceAlpha" type="matrix" values="0 0 0 0 0 0 0 0 0 0 0 0 0 0 0 0 0 0 127 0" result="hardAlpha"/>
<feOffset/>
<feGaussianBlur stdDeviation="50.4"/>
<feColorMatrix type="matrix" values="0 0 0 0 1 0 0 0 0 0.972549 0 0 0 0 0.439216 0 0 0 1 0"/>
<feBlend mode="normal" in2="effect5_dropShadow_11_143" result="effect6_dropShadow_11_143"/>
<feBlend mode="normal" in="SourceGraphic" in2="effect6_dropShadow_11_143" result="shape"/>
</filter>
</defs>
</svg>
